<?xml version="1.0" standalone="no"?>
<!DOCTYPE svg PUBLIC "-//W3C//DTD SVG 20010904//EN"
 "http://www.w3.org/TR/2001/REC-SVG-20010904/DTD/svg10.dtd">
<svg version="1.0" xmlns="http://www.w3.org/2000/svg"
 width="261.000000pt" height="210.000000pt" viewBox="0 0 261.000000 210.000000"
 preserveAspectRatio="xMidYMid meet">
<metadata>
Created by potrace 1.10, written by Peter Selinger 2001-2011
</metadata>
<g transform="translate(0.000000,210.000000) scale(0.100000,-0.100000)"
fill="#000000" stroke="none">
<path d="M703 2038 c-39 -13 -123 -91 -149 -139 -17 -31 -19 -64 -22 -332 -4
-344 1 -371 71 -439 48 -46 81 -65 134 -76 l38 -8 5 -105 c6 -130 22 -159 88
-159 30 0 48 15 162 130 114 116 131 130 162 130 18 0 43 7 55 15 20 14 27 14
72 -1 70 -22 526 -17 581 8 55 24 134 106 148 154 8 29 12 134 12 340 0 268
-2 303 -19 339 -23 52 -108 128 -159 143 -51 16 -1131 15 -1179 0z m1182 -67
c49 -22 91 -69 105 -119 7 -24 10 -138 8 -327 l-3 -290 -30 -48 c-51 -80 -59
-82 -373 -82 -256 0 -274 1 -287 19 -15 20 -15 22 17 184 11 57 18 105 16 108
-2 2 -29 -11 -59 -29 -172 -105 -152 -97 -250 -97 -76 0 -92 3 -109 20 -27 27
-25 58 5 90 l25 26 -51 54 c-63 68 -63 91 1 104 40 7 50 6 82 -16 20 -14 50
-31 68 -38 29 -12 36 -11 76 11 24 13 44 27 44 31 0 6 -68 34 -128 53 -58 17
-81 86 -42 125 26 26 61 25 234 -4 l139 -23 85 40 c80 38 88 39 153 34 87 -7
123 -24 127 -58 4 -37 -36 -81 -119 -130 -38 -23 -69 -46 -69 -53 0 -6 -11
-45 -24 -86 -13 -41 -33 -109 -46 -150 -31 -105 -38 -120 -54 -120 -29 0 -35
31 -16 84 9 28 32 111 50 184 29 116 37 135 59 147 50 25 152 106 146 115 -12
20 -96 23 -134 5 -63 -30 -130 -77 -136 -96 -4 -10 -25 -28 -48 -39 -23 -11
-80 -44 -127 -75 -115 -74 -121 -76 -167 -63 -21 5 -44 15 -51 20 -27 23 -24
-4 4 -33 l29 -31 -32 -27 c-18 -15 -33 -31 -33 -36 0 -4 30 -5 68 -3 50 4 76
12 105 31 21 14 59 35 85 47 26 12 54 26 62 31 61 37 73 41 96 30 30 -13 30
-28 -1 -179 -14 -66 -25 -128 -25 -136 0 -14 28 -16 233 -16 260 0 281 5 324
69 23 33 23 39 23 318 0 314 -2 326 -63 363 -31 19 -54 20 -582 20 -528 0
-551 -1 -582 -20 -62 -38 -64 -48 -61 -375 l3 -293 25 -27 c34 -38 80 -55 143
-55 29 0 58 -5 65 -12 8 -8 12 -47 12 -108 l1 -95 77 83 c101 108 135 132 188
132 44 0 70 -19 60 -45 -4 -10 -19 -15 -50 -15 -44 0 -46 -1 -168 -130 -164
-174 -178 -173 -178 11 l0 117 -42 7 c-24 3 -58 9 -76 12 -36 6 -75 47 -103
108 -17 36 -19 70 -19 315 0 159 4 291 10 312 14 50 55 97 105 119 37 17 78
19 590 19 512 0 553 -2 590 -19z m-56 -102 c57 -20 61 -40 61 -324 0 -157 -4
-264 -10 -276 -22 -40 -61 -49 -215 -49 -161 0 -155 -3 -131 71 8 24 29 90 47
147 l32 103 69 41 c38 23 76 51 83 62 21 32 29 100 16 139 -13 39 -45 56 -143
76 -74 16 -114 7 -192 -40 -36 -21 -75 -39 -86 -39 -12 0 -86 12 -164 26 -78
14 -155 23 -173 19 -19 -3 -44 -20 -63 -42 -28 -31 -31 -42 -28 -84 3 -53 5
-52 -64 -64 -63 -10 -85 -66 -54 -140 8 -18 24 -38 35 -45 20 -10 20 -13 6
-40 -25 -49 -19 -89 19 -125 40 -37 70 -45 175 -45 54 0 84 5 106 18 33 19
105 46 109 40 1 -1 -1 -21 -6 -43 l-8 -40 -81 4 -80 3 -64 -63 -63 -64 -5 40
c-8 60 -43 85 -118 85 -63 0 -112 18 -123 45 -3 9 -6 139 -6 289 0 270 0 273
23 293 12 11 29 23 37 26 31 11 1026 7 1059 -4z m-396 -313 c-6 -10 -13 -12
-23 -6 -12 7 -11 12 5 30 17 18 21 19 23 6 2 -8 0 -22 -5 -30z"/>
<path d="M1050 1705 c0 -6 147 -80 178 -90 17 -5 33 0 58 17 18 12 34 26 34
29 0 3 -57 15 -127 27 -138 24 -143 24 -143 17z"/>
<path d="M532 514 c-24 -17 -29 -53 -10 -72 16 -16 70 -16 86 0 18 18 15 53
-6 71 -23 21 -41 21 -70 1z"/>
<path d="M1027 486 c-47 -17 -64 -32 -84 -69 -19 -38 -11 -92 19 -124 20 -21
66 -39 150 -57 53 -12 44 -76 -11 -76 -32 0 -71 25 -71 46 0 10 -14 14 -55 14
-59 0 -64 -5 -45 -55 39 -103 218 -128 308 -42 25 24 32 39 32 69 0 78 -31
106 -150 138 -53 14 -70 26 -70 50 0 38 75 42 92 5 10 -22 17 -25 64 -25 29 0
55 4 59 10 3 5 -1 25 -9 45 -12 27 -27 41 -68 60 -59 28 -105 31 -161 11z"/>
<path d="M166 478 c-10 -40 -62 -198 -95 -291 l-39 -107 63 0 63 0 6 35 7 35
74 0 73 0 12 -35 12 -35 64 0 64 0 -19 47 c-10 27 -42 119 -71 206 l-53 157
-79 0 c-54 0 -80 -4 -82 -12z m107 -161 c24 -74 23 -77 -23 -77 -22 0 -40 4
-40 10 0 18 34 120 40 120 4 0 14 -24 23 -53z"/>
<path d="M1310 285 l0 -205 60 0 60 0 0 98 c0 104 7 122 47 122 33 0 43 -29
43 -129 l0 -91 55 0 55 0 0 103 c0 166 -24 210 -112 210 -33 0 -47 -6 -65 -27
l-23 -27 0 75 0 76 -60 0 -60 0 0 -205z"/>
<path d="M1773 390 c-34 -11 -83 -62 -83 -87 0 -12 9 -14 48 -10 26 3 61 9 78
12 21 5 34 3 39 -5 10 -16 -8 -26 -61 -34 -69 -9 -102 -31 -115 -74 -9 -32 -8
-44 5 -70 29 -56 114 -66 164 -20 l22 21 0 -21 c0 -20 5 -22 50 -22 l50 0 0
116 c0 127 -11 162 -58 184 -36 16 -102 21 -139 10z m87 -204 c0 -30 -22 -49
-52 -44 -34 5 -32 50 2 59 43 12 50 10 50 -15z"/>
<path d="M510 245 c0 -80 0 -148 0 -152 0 -5 25 -9 55 -11 l55 -3 0 156 0 155
-55 0 -55 0 0 -145z"/>
<path d="M680 235 l0 -155 60 0 60 0 0 91 c0 109 8 129 55 129 35 0 35 0 35
45 0 45 0 45 -36 45 -27 0 -37 -5 -41 -20 -3 -11 -9 -20 -14 -20 -5 0 -9 9 -9
20 0 18 -7 20 -55 20 l-55 0 0 -155z"/>
<path d="M2030 236 l0 -156 55 0 55 0 0 93 c0 106 11 127 68 127 31 0 32 1 32
45 0 43 -1 45 -29 45 -30 0 -60 -21 -62 -43 -1 -7 -4 -1 -8 13 -6 22 -13 25
-59 28 l-52 3 0 -155z"/>
<path d="M2335 380 c-83 -34 -111 -196 -45 -261 27 -28 85 -49 130 -49 57 1
161 74 144 101 -9 15 -89 10 -110 -6 -28 -21 -71 -19 -84 5 -6 11 -8 25 -5 30
3 6 51 10 106 10 l99 0 0 33 c0 46 -39 109 -80 129 -37 19 -120 23 -155 8z
m106 -81 c29 -15 14 -29 -31 -29 -44 0 -59 14 -33 29 23 13 40 13 64 0z"/>
</g>
</svg>
