<svg width="375" height="601" viewBox="0 0 375 601" fill="none" xmlns="http://www.w3.org/2000/svg">
<mask id="mask0_7564_31735" style="mask-type:luminance" maskUnits="userSpaceOnUse" x="0" y="0" width="375" height="601">
<path d="M375 0H0V600.073H375V0Z" fill="white"/>
</mask>
<g mask="url(#mask0_7564_31735)">
<path d="M375 0H0V600.073H375V0Z" fill="black"/>
<mask id="mask1_7564_31735" style="mask-type:luminance" maskUnits="userSpaceOnUse" x="0" y="0" width="375" height="601">
<path d="M375 0H0V600.073H375V0Z" fill="white"/>
</mask>
<g mask="url(#mask1_7564_31735)">
<path opacity="0.78" d="M258.521 521.211C246.555 530.729 235.95 540.972 226.704 551.759C246.555 567.44 266.588 581.944 285.986 594.815C290.881 588.923 296.592 583.303 302.937 578.137L258.521 521.211ZM-12.1466 507.886C-10.6963 520.033 -7.97695 531.364 -4.16985 542.15C-4.35114 531.454 -3.53533 520.486 -1.54113 509.337C-6.61728 499.547 -10.4244 489.395 -12.7812 478.88C-13.0531 483.14 -13.1437 487.31 -13.0531 491.48H-13.2344C-13.0531 496.918 -12.6905 502.357 -12.1466 507.886ZM1.7221 556.382C10.9679 575.87 24.0209 592.73 40.0651 606.871C38.0709 592.187 38.3428 576.686 40.7903 560.733C25.018 547.136 11.8744 532.179 2.26597 516.135C0.362421 530.004 0.0904846 543.51 1.7221 556.382ZM45.6851 611.675C61.2761 624.366 79.3146 634.699 98.894 642.585C97.353 629.17 98.1688 614.848 101.069 600.163C91.0078 595.178 81.3994 589.739 72.2442 583.938C62.5452 577.774 53.4806 571.248 45.0506 564.359C42.8751 580.765 43.0564 596.719 45.6851 611.675ZM104.151 644.67C107.687 646.03 111.312 647.299 114.938 648.477C135.605 655.276 157.723 659.627 180.475 661.621C179.115 651.559 179.478 640.954 181.381 629.986C154.913 623.187 129.26 613.942 105.692 602.52C102.882 617.114 102.338 631.345 104.151 644.67ZM185.37 661.984C199.238 662.981 213.198 663.071 227.248 662.256C239.938 661.53 252.538 660.08 265.138 657.995C264.141 653.1 263.869 647.934 264.322 642.676C238.307 641.407 211.838 637.419 186.095 631.073C184.191 641.86 183.919 652.285 185.37 661.984ZM269.942 657.179C290.518 653.372 310.642 647.571 329.858 639.866C323.332 640.863 316.715 641.588 309.916 642.132C296.592 643.22 282.995 643.401 269.217 642.857C268.763 647.843 269.035 652.647 269.942 657.179ZM368.927 620.559C384.427 611.313 398.84 600.435 411.802 588.108C410.986 584.572 409.808 581.219 408.176 578.137C396.755 593.002 383.611 607.234 368.927 620.559ZM415.79 584.21C432.378 567.531 446.156 548.133 456.218 526.197C454.405 519.398 451.595 512.963 447.879 507.161C439.358 530.095 427.121 552.575 411.349 573.967C413.252 577.139 414.703 580.584 415.79 584.21ZM459.209 519.308C466.824 500.907 471.99 480.602 473.985 458.666C473.803 457.941 473.531 457.125 473.35 456.4C470.812 447.788 467.096 439.721 462.11 432.288C462.019 448.604 459.844 465.192 455.674 481.871C454.043 488.398 452.048 495.015 449.782 501.541C453.861 506.98 456.943 512.963 459.209 519.308ZM474.8 445.885L474.891 444.888C472.172 427.575 467.549 410.352 460.932 393.764L460.569 393.945C459.209 390.591 457.668 387.328 456.037 384.155C459.481 397.027 461.476 410.261 462.019 423.858L462.201 424.13C467.458 430.747 471.628 438.089 474.8 445.885ZM476.885 474.438C473.894 493.202 468.546 510.606 461.385 526.65C463.47 535.171 464.195 544.145 463.56 553.572C467.186 546.864 470.359 539.794 472.988 532.179C474.257 526.106 475.254 519.942 475.979 513.778C476.885 506.527 477.429 499.275 477.701 491.933H477.429C477.701 485.95 477.52 480.149 476.885 474.438ZM457.94 533.992C447.426 555.113 433.466 573.695 417.059 589.83C417.784 594.181 417.875 598.713 417.422 603.427C433.375 592.821 446.972 579.587 457.578 563.543C459.209 553.3 459.391 543.329 457.94 533.992ZM412.618 594.09C399.474 606.237 384.971 616.933 369.289 626.088C384.699 621.284 399.021 614.848 412.074 606.962C412.799 602.43 412.98 598.169 412.618 594.09ZM329.405 645.305C310.732 652.647 291.153 658.176 271.211 661.893C272.571 665.791 274.474 669.417 277.012 672.68L277.556 673.405C295.141 665.972 312.545 656.545 329.405 645.305ZM266.407 662.709C253.535 664.884 240.573 666.425 227.61 667.15C213.832 667.966 199.964 667.785 186.367 666.878C188.542 676.759 192.621 685.914 198.785 693.891C223.169 691.534 248.187 685.37 273.024 675.308C270.033 671.501 267.857 667.241 266.407 662.709ZM181.2 666.516C157.632 664.522 134.699 660.08 113.307 653.01C110.497 652.103 107.687 651.106 104.967 650.109C107.596 663.887 112.944 676.487 121.193 687.546C138.506 692.44 156.998 694.979 176.033 694.979C181.653 694.979 187.273 694.797 192.984 694.344C187.183 686.095 183.285 676.668 181.2 666.516ZM99.7098 648.115C80.5836 640.591 62.8171 630.892 47.3167 619.108C51.1238 634.79 57.8316 649.203 67.8026 661.893C81.6713 671.955 97.1717 679.75 113.76 685.279C106.508 674.13 101.885 661.621 99.7098 648.115ZM41.2435 614.304C26.7402 602.339 14.4125 588.289 4.7134 572.245C6.07308 577.593 7.79534 582.85 9.88019 587.836H9.78954C16.9505 603.155 25.9244 617.93 36.5299 631.98C42.1499 639.141 48.3138 645.667 54.8403 651.559C48.3138 640.138 43.8722 627.538 41.2435 614.304ZM-10.3337 458.757C-9.88051 473.532 -6.25469 487.763 -0.000162125 501.36C2.90049 487.854 7.34212 474.076 13.2341 460.388C15.3189 455.584 17.585 450.78 19.9418 445.976C12.4183 433.738 7.07018 422.136 4.26017 411.258C-2.71952 427.121 -7.61437 443.075 -10.3337 458.757ZM3.53501 508.43C12.5996 525.29 25.6525 540.972 41.7874 555.113C43.419 546.229 45.6851 537.346 48.6764 528.282C52.1209 517.767 56.4719 507.161 61.6387 496.646C50.6706 485.588 40.7903 474.529 32.5415 463.742C29.1877 459.3 26.0151 454.95 23.1144 450.599C21.2109 454.496 19.4886 458.303 17.7663 462.201C11.0586 477.792 6.25437 493.293 3.53501 508.43ZM46.0477 558.829C54.9309 566.262 64.63 573.332 75.0542 579.95C83.6655 585.388 92.8207 590.555 102.338 595.359C103.879 588.47 105.964 581.581 108.412 574.601C111.675 565.356 115.845 556.019 120.649 546.773C115.482 542.966 110.406 539.159 105.42 535.352C90.9172 524.021 77.411 512.237 65.2645 500.363C60.551 510.153 56.4719 520.033 53.2993 529.913C50.0361 539.612 47.6793 549.311 46.0477 558.829ZM106.689 597.535C130.167 608.956 155.729 618.293 182.288 625.091C183.466 619.833 184.916 614.576 186.82 609.319C188.814 603.517 191.262 597.716 194.072 591.915C169.688 579.406 146.211 564.993 124.547 549.583C119.924 558.467 116.117 567.35 112.944 576.142C110.315 583.394 108.321 590.464 106.689 597.535ZM187.001 626.36C212.654 632.614 239.032 636.603 264.956 637.872C265.5 634.337 266.407 630.711 267.585 627.085C268.038 625.635 268.582 624.184 269.126 622.734C247.281 616.117 225.344 607.324 204.043 596.991C202.139 596.084 200.326 595.178 198.423 594.181C195.703 599.801 193.346 605.421 191.443 611.041C189.63 616.117 188.18 621.284 187.001 626.36ZM269.851 638.053C283.267 638.506 296.592 638.325 309.554 637.237C316.171 636.694 322.788 635.968 329.224 635.062C311.095 633.249 292.513 629.442 273.84 624.094C273.205 625.635 272.661 627.085 272.208 628.535C271.211 631.708 270.395 634.881 269.851 638.053ZM465.917 559.282C464.739 561.367 463.47 563.361 462.201 565.356C461.657 568.709 460.932 572.154 460.025 575.599C462.201 570.25 464.195 564.812 465.917 559.282ZM455.04 575.417C444.344 589.105 431.291 600.526 416.425 609.953C415.881 612.854 415.065 615.845 414.159 618.836C413.887 619.652 413.615 620.468 413.252 621.374C423.858 617.386 434.01 612.129 443.346 605.421C446.7 598.804 449.601 592.187 451.867 585.66C453.136 582.125 454.133 578.771 455.04 575.417ZM410.714 613.398C398.386 620.468 385.061 626.179 370.83 630.711C383.43 629.533 395.667 627.176 407.27 623.369C408.176 621.284 408.901 619.29 409.626 617.205C409.989 615.936 410.352 614.667 410.714 613.398ZM9.5176 380.076C7.7047 384.518 6.79824 389.413 6.79824 394.67C7.79534 392.767 8.7018 390.954 9.78954 389.05C17.4944 375.091 26.6496 361.494 37.2551 348.26C36.0767 344.181 35.4422 340.283 35.3515 336.748C25.1086 350.435 16.4973 364.939 9.5176 380.076ZM7.52341 404.007C9.42696 415.247 14.5937 427.665 22.4799 440.809C31.8164 423.042 43.6003 405.457 57.469 388.506C49.039 375.907 42.6032 364.213 38.9774 353.88C29.3689 366.026 21.0296 378.626 13.9592 391.407C11.6931 395.577 9.60825 399.746 7.52341 404.007ZM25.5618 445.613C28.8251 450.599 32.3602 455.675 36.3486 460.841C44.2348 471.084 53.4806 481.599 63.9048 492.114C73.06 474.257 84.6626 456.581 98.4407 439.721C85.2971 425.127 73.6945 411.077 64.1768 397.843C62.9077 396.121 61.7294 394.398 60.551 392.676C46.4103 409.808 34.8077 427.665 25.5618 445.613ZM67.44 495.74C79.6771 507.796 93.4552 519.852 108.321 531.454C113.035 535.171 117.93 538.797 122.824 542.422C131.345 526.831 141.951 511.331 154.46 496.374C135.424 478.608 117.476 460.751 101.613 443.347C87.9259 460.298 76.5046 477.973 67.44 495.74ZM126.813 545.232C148.477 560.733 171.954 575.145 196.247 587.564C202.411 575.599 210.297 563.815 219.724 552.393C217.458 550.58 215.192 548.767 212.835 546.955C194.072 531.817 175.58 515.863 157.995 499.638C145.667 514.504 135.152 529.823 126.813 545.232ZM200.598 589.83C202.411 590.736 204.315 591.643 206.127 592.549C227.429 602.883 249.275 611.585 271.03 618.202C274.021 611.585 278.009 604.968 282.904 598.622C263.506 585.751 243.473 571.157 223.531 555.475C214.376 566.625 206.671 578.137 200.598 589.83ZM275.834 619.562C296.773 625.544 317.712 629.533 337.835 630.892C321.882 622.915 304.75 612.854 287.074 601.251C282.451 607.234 278.644 613.398 275.834 619.562ZM438.452 614.395C429.659 619.743 420.413 624.003 410.805 627.266C407.904 633.702 404.097 640.047 399.474 646.211C406.907 646.574 413.252 645.577 418.147 642.767C426.033 633.612 432.832 624.094 438.452 614.395ZM404.46 629.351C390.591 633.43 375.997 635.606 360.859 636.15C367.114 638.688 373.096 640.773 378.716 642.404C384.064 643.945 389.141 645.033 393.763 645.667C398.024 640.41 401.559 634.881 404.46 629.351ZM2.53791 403.191C2.26597 401.469 2.08468 399.746 1.99404 398.024C-1.08791 406.273 -3.71662 414.703 -5.80147 423.133C-3.35404 416.516 -0.544035 409.808 2.53791 403.191ZM5.7105 376.632L5.98244 376.088C22.208 341.915 46.4103 310.914 78.2268 286.077C110.043 261.24 146.03 245.377 183.104 237.944L183.738 237.854C209.935 232.687 236.766 231.781 262.962 235.044C309.463 240.754 354.333 259.518 391.679 290.428C392.766 291.335 393.945 292.15 395.033 293.057L394.942 293.147C407.542 303.934 419.144 316.081 429.75 329.587C472.262 384.155 488.669 450.78 480.783 514.413C472.897 578.046 440.808 638.688 386.24 681.2C331.671 723.713 265.047 740.12 201.414 732.234C137.781 724.348 77.1391 692.168 34.6264 637.691C-7.88631 583.213 -24.2931 516.498 -16.407 452.865C-13.0531 426.577 -5.62018 400.834 5.7105 376.632ZM40.7903 329.678C39.7025 333.666 39.8838 338.38 40.9716 343.728C54.0245 328.227 69.0716 313.543 86.113 300.037L79.3146 291.335C64.8113 302.937 52.0303 315.809 40.7903 329.678ZM42.6032 349.529C45.8664 359.591 52.1209 371.465 60.8229 384.609C75.87 366.842 93.2739 349.982 112.944 334.391L89.1949 303.934C71.4284 317.894 55.9281 333.303 42.6032 349.529ZM63.6329 388.778C65.0832 390.773 66.5336 392.857 67.9839 394.942C77.3204 407.814 88.651 421.592 101.432 435.823C116.298 418.147 133.521 401.287 153.009 385.878L115.845 338.198C96.084 353.88 78.68 370.921 63.6329 388.778ZM104.786 439.54C120.649 456.944 138.506 474.891 157.632 492.658C170.776 477.52 185.823 463.017 202.774 449.601L156.091 389.775C136.602 405.095 119.47 421.955 104.786 439.54ZM161.167 495.921C178.753 512.056 197.154 528.01 215.917 543.147C218.183 545.051 220.54 546.864 222.806 548.677C232.324 537.618 243.201 527.103 255.529 517.314L205.674 453.409C188.995 466.733 174.13 481.055 161.167 495.921ZM290.065 597.444C308.013 609.137 325.236 619.29 341.189 627.176L305.928 581.944C299.945 586.839 294.688 592.005 290.065 597.444ZM411.621 650.29C406.907 651.287 401.65 651.378 395.848 650.834C390.953 656.726 385.243 662.437 378.807 667.604L384.699 675.218C394.67 667.422 403.644 658.992 411.621 650.29ZM390.138 650.109C386.059 649.384 381.798 648.387 377.357 647.118C371.102 645.305 364.394 642.857 357.324 639.957L375.906 663.797C381.164 659.536 385.968 654.913 390.138 650.109ZM202.502 698.332C207.215 703.409 212.745 707.669 218.908 711.113C242.748 706.672 264.866 697.97 285.08 686.005C281.816 684.101 278.916 681.835 276.196 679.116C251.722 689.268 226.795 695.704 202.502 698.332ZM365.391 617.295C380.439 603.608 393.854 589.105 405.275 573.876L404.732 573.151C402.193 569.888 399.112 567.168 395.667 564.902C387.237 583.213 377.085 600.889 365.391 617.295ZM408.357 569.707C424.13 548.133 436.185 525.29 444.434 502.266C438.27 494.38 430.384 488.216 421.32 483.684C418.872 497.1 415.609 510.515 411.53 523.749C407.632 536.168 403.009 548.405 397.752 560.279C401.74 562.818 405.366 565.99 408.357 569.707ZM446.247 496.918C448.06 491.48 449.601 486.041 450.961 480.693C455.584 462.201 457.668 443.619 457.125 425.671C448.423 414.975 437.455 406.726 424.764 400.834C425.036 403.735 425.308 406.726 425.58 409.627C427.212 432.107 425.943 455.403 422.135 478.699C431.472 483.14 439.63 489.213 446.247 496.918ZM456.762 417.694C455.493 400.29 451.686 383.34 445.25 367.386C435.37 354.696 422.951 344.634 408.72 337.201C416.425 355.149 421.501 374.728 424.13 395.124C436.729 400.562 447.697 407.995 456.762 417.694ZM438.452 352.52C434.282 344.725 429.478 337.201 423.948 330.04C413.162 316.534 401.196 304.478 388.325 293.873C383.702 290.428 378.807 287.256 373.731 284.446C386.965 297.77 397.571 313.18 405.638 330.131C417.875 335.932 428.843 343.365 438.452 352.52ZM331.762 649.565C315.265 660.533 298.314 669.779 281.182 677.121C283.811 679.478 286.711 681.472 289.974 683.104C305.022 673.677 318.981 662.346 331.762 649.565ZM196.61 698.967C189.721 699.601 182.832 699.873 176.124 699.873C158.992 699.873 142.404 697.879 126.541 694.072C132.161 700.236 138.597 705.493 145.667 709.844C146.845 710.57 148.114 711.295 149.293 711.929C171.138 715.283 191.896 715.283 211.657 712.382C206.037 708.666 200.961 704.134 196.61 698.967ZM118.292 691.806C105.33 687.999 92.9114 682.832 81.3088 676.396C84.1188 678.844 86.9288 681.2 89.9201 683.285L89.6481 683.648C104.151 693.981 119.47 702.593 135.515 709.391L136.512 709.572C129.713 704.587 123.55 698.786 118.292 691.987V691.806ZM226.16 714.649C234.862 718.365 244.47 720.631 254.804 721.538C273.024 715.192 289.159 705.131 303.39 692.259C298.767 691.534 294.325 690.265 290.337 688.543C270.667 700.689 249.184 709.663 226.16 714.649ZM337.019 651.197C324.329 664.159 310.46 675.671 295.413 685.461C299.311 686.82 303.571 687.636 307.922 688.089C318.89 677.303 328.589 664.884 337.019 651.197ZM218.274 716.28C201.051 719.362 182.922 720.269 164.068 718.637C168.147 720.087 172.407 721.447 176.758 722.444L176.668 722.807C185.098 724.71 193.528 726.251 202.139 727.339C208.303 728.064 214.557 728.608 220.721 728.88C228.789 728.155 236.494 726.795 243.927 724.891C234.59 723.169 225.979 720.359 218.274 716.28ZM360.134 616.298C372.281 599.62 382.795 581.4 391.497 562.455C387.328 560.461 382.795 559.01 377.81 558.285C374.909 571.791 371.374 584.935 367.114 597.535C364.938 603.88 362.581 610.134 360.134 616.298ZM393.401 558.013C398.568 546.411 403.009 534.445 406.816 522.299C410.986 508.884 414.34 495.287 416.697 481.599C407.632 477.792 397.48 475.526 386.602 474.71C386.421 501.179 383.792 527.828 378.716 553.39C384.064 554.297 388.959 555.838 393.401 558.013ZM417.603 476.704C421.229 454.224 422.407 431.654 420.866 409.989C420.594 406.182 420.232 402.375 419.779 398.568C407.36 393.583 393.401 390.682 378.535 389.775C383.792 415.337 386.602 442.531 386.693 469.815C397.752 470.631 408.176 472.897 417.603 476.704ZM419.054 393.039C416.153 372.1 410.533 352.067 402.012 333.847C388.143 327.593 372.824 323.604 356.327 321.791C360.95 331.672 365.12 342.096 368.655 352.973C372.009 363.216 374.909 373.913 377.357 384.79C392.313 385.606 406.363 388.325 419.054 393.039ZM398.658 327.139C388.869 308.195 375.725 291.335 359.046 277.647C346.99 272.934 333.847 269.852 319.887 268.401C333.122 281.636 344.452 297.952 353.789 316.625C369.833 318.166 384.88 321.61 398.658 327.139ZM346.628 268.492C337.201 262.237 326.777 256.799 315.355 252.448C309.826 250.453 304.206 248.641 298.495 247.1V247.19C294.779 246.193 290.881 245.377 287.074 244.652C296.864 249.456 305.837 255.62 314.267 263.053C325.417 263.869 336.294 265.682 346.628 268.492ZM266.951 722.082C277.193 721.991 287.89 720.631 298.858 718.093C307.65 710.57 315.174 702.049 321.7 692.712C320.794 692.803 319.978 692.894 319.072 692.984C315.99 693.166 312.908 693.256 309.916 693.075C297.135 705.131 282.813 715.011 266.951 722.082ZM341.189 653.735C333.394 666.425 324.51 678.028 314.63 688.271C315.99 688.271 317.259 688.18 318.618 688.089C320.794 687.908 322.969 687.727 325.145 687.364C331.671 677.031 337.019 665.7 341.189 653.735ZM255.711 726.432C253.444 727.248 251.088 727.973 248.731 728.608C254.713 728.245 260.605 727.611 266.497 726.795C262.871 726.886 259.246 726.704 255.711 726.432ZM355.602 614.485C358.049 608.412 360.406 602.248 362.491 595.994C366.66 583.666 370.105 570.794 372.915 557.651C369.742 557.379 366.479 557.379 363.125 557.651C361.584 557.741 359.953 557.923 358.412 558.104C359.046 577.593 358.23 596.447 355.602 614.485ZM373.912 552.847C378.988 527.375 381.617 500.816 381.798 474.438C376.631 474.257 371.283 474.438 365.845 474.982C359.953 475.526 353.879 476.432 347.806 477.701C348.259 479.696 348.713 481.781 349.166 483.865C353.97 507.071 357.143 530.457 358.23 553.3C359.771 553.118 361.312 552.937 362.853 552.847C366.57 552.575 370.286 552.575 373.912 552.847ZM381.798 469.634C381.617 442.259 378.807 415.156 373.459 389.594C366.298 389.413 358.865 389.685 351.251 390.41C341.914 391.316 332.397 392.948 322.607 395.214C332.306 420.051 340.555 446.338 346.718 472.988C353.064 471.628 359.318 470.722 365.391 470.178C370.921 469.634 376.45 469.453 381.798 469.634ZM372.371 384.699C370.014 374.366 367.295 364.213 364.032 354.514C360.225 342.821 355.692 331.672 350.616 321.248C341.008 320.522 331.037 320.432 320.794 321.157C310.46 321.882 299.945 323.332 289.249 325.599C297.77 340.283 305.837 356.146 313.361 373.097C315.899 378.807 318.346 384.699 320.703 390.591C330.856 388.144 340.917 386.512 350.707 385.515C358.14 384.79 365.301 384.518 372.371 384.699ZM348.169 316.262C338.288 297.227 326.233 280.638 312.183 267.767C297.951 266.86 282.995 267.495 267.585 269.67C262.237 270.486 256.798 271.393 251.36 272.571C254.895 276.378 258.339 280.548 261.874 284.899C270.395 295.595 278.734 307.832 286.711 321.157C298.223 318.709 309.463 317.078 320.522 316.353C329.949 315.718 339.195 315.628 348.169 316.262ZM306.109 262.6C294.325 253.173 281.273 246.103 266.86 242.114C251.088 241.026 234.59 241.933 217.639 244.743C227.429 250.091 237.491 258.158 247.371 268.492C253.898 267.042 260.333 265.863 266.769 264.957C280.275 262.963 293.419 262.147 306.109 262.6ZM308.829 715.464C319.616 712.292 330.493 708.122 341.37 702.774C345.178 698.604 347.806 692.803 349.257 685.461C342.186 688.452 335.025 690.537 328.046 691.806C322.516 700.327 316.171 708.303 308.829 715.464ZM205.493 239.395C207.034 239.939 208.666 240.483 210.207 241.117C217.186 239.757 224.166 238.67 231.055 237.944C222.534 238.035 214.014 238.488 205.493 239.395ZM348.894 645.486C344.634 659.989 339.014 673.677 331.671 686.095C337.745 684.645 343.999 682.56 350.163 679.75C350.707 675.037 350.888 669.87 350.616 664.34C350.435 658.448 349.8 652.103 348.894 645.486ZM349.438 621.918C353.064 601.976 354.242 580.765 353.517 559.01C346.809 560.279 339.92 562.455 333.031 565.446C340.011 585.388 345.631 604.514 349.438 621.918ZM353.426 554.025C352.339 531.364 349.166 507.977 344.362 484.862C343.909 482.868 343.455 480.783 343.002 478.789C330.221 481.871 317.168 486.494 304.115 492.658C314.449 515.773 323.695 538.797 331.49 560.733C338.832 557.56 346.175 555.294 353.426 554.025ZM341.914 473.985C335.75 447.335 327.502 421.048 317.803 396.302C300.761 400.653 283.357 406.998 265.953 415.428C277.375 436.458 288.343 458.303 298.495 480.149C299.764 482.778 300.943 485.497 302.121 488.126C315.446 481.871 328.861 477.158 341.914 473.985ZM315.99 391.77C313.724 386.15 311.367 380.53 308.919 375C301.305 357.778 292.966 341.461 284.264 326.686C264.775 331.037 244.924 337.836 225.072 347.081C238.035 366.661 251.088 388.416 263.597 411.258C281.182 402.738 298.767 396.211 315.99 391.77ZM281.635 322.335C274.021 309.736 266.044 298.133 257.977 287.981C253.898 282.905 249.909 278.191 245.83 273.84C226.16 278.372 206.037 285.443 186.004 294.779C187.364 296.32 188.724 297.952 190.083 299.583C200.507 312.092 211.385 326.777 222.353 343.002C242.204 333.757 262.146 326.868 281.635 322.335ZM241.932 269.761C231.055 258.884 220.268 250.816 209.753 246.193C204.949 247.19 200.236 248.278 195.431 249.547C181.563 253.263 167.513 258.249 153.553 264.504C162.618 270.577 172.407 279.641 182.65 290.972C202.502 281.545 222.444 274.475 241.932 269.761ZM200.961 243.202C195.975 242.023 191.08 241.661 186.367 242.295C169.96 245.377 153.734 250.182 138.053 256.799C141.497 257.796 145.032 259.337 148.749 261.512C163.887 254.533 179.115 248.913 194.344 244.924C196.428 244.29 198.695 243.655 200.961 243.202ZM350.254 698.151C360.678 692.44 370.921 685.823 380.982 678.209L375.091 670.595C368.473 675.58 361.584 679.659 354.695 683.013C353.789 688.815 352.339 693.891 350.254 698.151ZM353.426 642.948C354.514 650.472 355.239 657.633 355.511 664.159C355.692 668.782 355.602 673.224 355.239 677.303C360.95 674.402 366.57 670.867 372.009 666.788L353.426 642.948ZM344.996 624.184C341.189 606.781 335.569 587.564 328.589 567.35C322.154 570.522 315.808 574.329 309.645 578.952L344.996 624.184ZM327.048 562.727C319.344 540.881 310.098 517.857 299.764 494.743C287.074 501.088 274.565 508.974 262.418 518.22L306.744 575.145C313.361 570.16 320.159 566.081 327.048 562.727ZM297.77 490.392C296.592 487.672 295.323 485.044 294.054 482.324C283.992 460.479 273.024 438.633 261.602 417.694C243.927 426.578 226.432 437.546 209.572 450.508L259.427 514.413C271.845 504.895 284.717 496.828 297.77 490.392ZM259.246 413.343C246.646 390.501 233.593 368.746 220.631 349.166C199.964 359.137 179.478 371.646 159.898 386.784L206.581 446.61C223.713 433.467 241.389 422.408 259.246 413.343ZM217.911 345.087C207.215 329.224 196.61 314.902 186.367 302.665C184.735 300.671 183.104 298.767 181.381 296.955C160.442 307.107 139.594 319.979 119.652 335.298L156.816 382.977C176.577 367.749 197.154 355.149 217.911 345.087ZM178.118 293.147C167.513 281.454 157.542 272.48 148.477 266.86C129.532 275.834 110.859 287.165 92.9114 300.943L116.66 331.4C136.602 316.171 157.27 303.39 178.118 293.147ZM143.31 263.96C138.415 261.512 133.883 260.334 129.804 260.334C113.579 267.767 97.9875 277.103 83.303 288.343L90.1014 297.045C107.143 283.902 125.09 272.843 143.31 263.96Z" fill="url(#paint0_linear_7564_31735)"/>
</g>
<path d="M338.288 181.925L395.667 254.26" stroke="#3FEA9C" stroke-width="4.2296" stroke-miterlimit="10"/>
<path d="M112.219 86.5664L336.204 178.571" stroke="#3FEA9C" stroke-width="2.3498" stroke-miterlimit="10"/>
<path d="M80.1309 74.2382L86.9293 72.6973L92.6399 74.6915L102.52 73.4224L104.968 74.1476L97.8974 76.6857L106.781 79.7676L113.851 79.3144L115.483 79.8582L110.406 81.3992L105.058 83.1215L94.8154 79.4957L99.529 87.9257L96.3564 86.8379L87.6544 76.6857L83.0315 75.2353" fill="#3FEA9C"/>
<path d="M60.4605 58.9191C91.5991 58.9191 116.842 33.6763 116.842 2.53769C116.842 -28.6009 91.5991 -53.8438 60.4605 -53.8438C29.3219 -53.8438 4.0791 -28.6009 4.0791 2.53769C4.0791 33.6763 29.3219 58.9191 60.4605 58.9191Z" fill="black"/>
<path d="M60.4605 58.9191C91.5991 58.9191 116.842 33.6763 116.842 2.53769C116.842 -28.6009 91.5991 -53.8438 60.4605 -53.8438C29.3219 -53.8438 4.0791 -28.6009 4.0791 2.53769C4.0791 33.6763 29.3219 58.9191 60.4605 58.9191Z" stroke="#3FEA9C" stroke-width="2.3498" stroke-miterlimit="10"/>
<path d="M60.4608 28.9158C75.0289 28.9158 86.8386 17.106 86.8386 2.53797C86.8386 -12.0301 75.0289 -23.8398 60.4608 -23.8398C45.8928 -23.8398 34.083 -12.0301 34.083 2.53797C34.083 17.106 45.8928 28.9158 60.4608 28.9158Z" stroke="#3FEA9C" stroke-width="2.3498" stroke-miterlimit="10"/>
<path d="M60.4608 36.5299C79.2341 36.5299 94.4528 21.3112 94.4528 2.53792C94.4528 -16.2354 79.2341 -31.4541 60.4608 -31.4541C41.6875 -31.4541 26.4688 -16.2354 26.4688 2.53792C26.4688 21.3112 41.6875 36.5299 60.4608 36.5299Z" stroke="#3FEA9C" stroke-width="2.3498" stroke-miterlimit="10"/>
<path d="M60.4604 43.7812C83.2387 43.7812 101.704 25.3158 101.704 2.5376C101.704 -20.2406 83.2387 -38.7061 60.4604 -38.7061C37.6822 -38.7061 19.2168 -20.2406 19.2168 2.5376C19.2168 25.3158 37.6822 43.7812 60.4604 43.7812Z" stroke="#3FEA9C" stroke-width="2.3498" stroke-miterlimit="10"/>
<path d="M60.4608 51.2145C87.3441 51.2145 109.137 29.4212 109.137 2.53791C109.137 -24.3454 87.3441 -46.1387 60.4608 -46.1387C33.5774 -46.1387 11.7842 -24.3454 11.7842 2.53791C11.7842 29.4212 33.5774 51.2145 60.4608 51.2145Z" stroke="#3FEA9C" stroke-width="2.3498" stroke-miterlimit="10"/>
<path d="M261.874 196.519L375.362 21.6641" stroke="#3FEA9C" stroke-width="6.5793" stroke-miterlimit="10"/>
<path d="M375.362 21.6641L64.5391 128.354L-25.0186 291.425" stroke="#3FEA9C" stroke-width="6.5793" stroke-miterlimit="10"/>
<path d="M242.023 300.036H132.07C121.102 300.036 112.219 291.152 112.219 280.184V228.516C112.219 217.548 121.102 208.665 132.07 208.665H242.023C252.991 208.665 261.874 217.548 261.874 228.516V280.184C261.874 291.152 252.991 300.036 242.023 300.036Z" fill="black"/>
<path d="M375.362 44.9599C388.228 44.9599 398.658 34.53 398.658 21.664C398.658 8.79808 388.228 -1.63184 375.362 -1.63184C362.496 -1.63184 352.066 8.79808 352.066 21.664C352.066 34.53 362.496 44.9599 375.362 44.9599Z" fill="white"/>
<path d="M-7.97656 70.7031L64.5398 128.354" stroke="#3FEA9C" stroke-width="6.5793" stroke-miterlimit="10"/>
<path d="M139.684 293.872L140.772 329.677L170.141 301.849L178.752 304.115H196.881L200.235 295.776L153.281 288.252L138.506 294.235" fill="black"/>
<path d="M140.048 336.657C139.232 336.657 138.416 336.475 137.6 336.203C135.153 335.206 133.521 332.85 133.521 330.13V307.56H131.255C117.386 307.56 106.056 296.229 106.056 282.269V228.064C106.056 214.104 117.386 202.773 131.346 202.773H243.655C257.615 202.773 268.945 214.104 268.945 228.064V282.269C268.945 296.229 257.615 307.56 243.655 307.56C232.053 307.56 222.988 307.65 215.737 307.741C210.66 307.831 206.672 307.831 203.409 307.831C193.347 307.831 189.54 307.378 186.821 304.568C185.37 303.118 184.555 301.124 184.645 299.039C184.645 297.135 186.005 289.068 188.724 274.927L170.142 285.261C169.326 285.714 168.329 285.986 167.332 286.077C165.972 286.167 160.987 286.439 156.273 286.439C152.738 286.439 150.2 286.258 148.568 285.895C144.399 285.079 141.498 282.269 140.682 278.462C139.957 274.655 141.589 270.395 144.761 268.129L136.694 259.336C135.062 257.523 134.518 255.076 135.334 252.719C136.15 250.453 138.053 248.731 140.501 248.368L147.209 247.28C147.571 247.19 147.934 247.19 148.296 247.19C149.656 247.19 150.925 247.643 152.104 248.368C157.361 252.085 162.346 254.351 164.159 254.895C164.975 254.441 166.244 253.716 167.876 252.81L155.367 247.462C154.732 247.19 154.188 246.827 153.735 246.465C150.109 243.473 148.115 237.4 151.65 232.143C153.735 228.97 157.089 227.066 160.805 227.066C162.075 227.066 163.162 227.248 163.887 227.52L196.248 232.777C197.336 232.143 198.333 231.599 199.33 231.145L199.511 231.055L209.119 225.888C212.111 224.347 214.921 223.078 219.362 223.078C222.898 223.078 227.249 223.894 233.503 225.616C236.948 226.613 239.395 229.333 239.848 232.777C240.573 237.944 236.948 243.745 230.33 247.915L219.362 254.804L208.485 291.697C208.122 292.875 207.488 293.872 206.672 294.597C209.482 294.597 212.564 294.507 215.737 294.507C223.17 294.416 232.325 294.325 243.837 294.325C250.544 294.325 255.983 288.887 255.983 282.179V227.973C255.983 221.265 250.544 215.826 243.837 215.826H131.346C124.638 215.826 119.199 221.265 119.199 227.973V282.179C119.199 288.887 124.638 294.325 131.346 294.325L140.138 294.507C143.673 294.597 146.574 297.498 146.574 301.033V313.905L163.162 296.863C164.431 295.594 166.063 294.869 167.876 294.869H176.85C180.476 294.869 183.376 297.77 183.376 301.396C183.376 305.021 180.476 307.922 176.85 307.922H170.595L144.761 334.662C143.583 335.932 141.861 336.657 140.048 336.657ZM160.987 267.585C161.168 268.31 161.259 269.035 161.168 269.76C161.077 271.029 160.534 272.208 159.718 273.205C161.44 273.114 163.253 273.114 165.066 273.024L191.534 258.339C191.806 258.248 191.987 258.067 192.259 257.977L192.622 257.795C193.438 257.433 194.254 257.342 195.069 257.342H195.432C198.333 257.342 201.143 258.883 202.684 261.33C202.865 261.602 202.956 261.874 203.137 262.146L206.219 251.722C206.4 248.912 207.941 246.374 210.389 244.833C210.389 244.833 223.17 236.856 223.26 236.765C221.629 236.403 220.269 236.312 219.181 236.312C217.368 236.312 216.552 236.765 214.83 237.581L205.312 242.748C205.222 242.839 205.131 242.839 205.04 242.929L204.769 243.02C204.043 243.383 202.593 244.108 202.23 244.47C201.052 247.28 198.967 249.637 196.338 251.178C187.637 256.345 172.499 265.409 169.145 267.132C167.785 267.857 166.244 268.219 164.522 268.219C163.615 268.038 162.346 267.947 160.987 267.585ZM181.745 244.561C182.107 244.38 182.47 244.108 182.832 243.926L178.844 243.292L181.745 244.561Z" fill="#3FEA9C"/>
<path d="M243.655 205.946C255.802 205.946 265.773 215.826 265.773 228.063V282.269C265.773 294.415 255.892 304.386 243.655 304.386C232.234 304.386 223.079 304.477 215.646 304.568C210.66 304.658 206.581 304.658 203.318 304.658C193.891 304.658 190.809 304.205 188.996 302.392C188.18 301.576 187.727 300.398 187.727 299.22C187.727 296.591 191.081 278.915 193.075 268.944L168.601 282.541C168.147 282.813 167.694 282.904 167.15 282.994C166.244 283.085 161.077 283.357 156.273 283.357C153.463 283.357 150.834 283.266 149.203 282.904C146.302 282.36 144.398 280.547 143.855 278.009C143.311 275.38 144.67 272.207 146.846 270.666C147.48 270.213 148.568 269.488 149.565 268.763L138.96 257.251C138.144 256.344 137.872 255.075 138.235 253.897C138.597 252.719 139.685 251.903 140.863 251.631L147.571 250.543C147.752 250.543 147.934 250.452 148.115 250.452C148.84 250.452 149.475 250.634 150.018 251.087C155.638 254.985 162.165 258.248 164.34 258.248C164.431 258.248 164.522 258.248 164.612 258.248C166.153 257.432 170.142 255.075 174.674 252.447L156.364 244.561C156.092 244.47 155.82 244.289 155.548 244.017C153.554 242.294 151.287 238.034 154.007 233.864C155.548 231.508 157.814 230.239 160.443 230.239C161.44 230.239 162.256 230.42 162.799 230.601L196.61 236.131C197.879 235.224 199.148 234.59 200.417 233.955L200.599 233.864L210.207 228.698C212.926 227.247 215.283 226.25 218.909 226.25C221.991 226.25 226.07 226.975 232.143 228.698C234.409 229.332 235.86 231.054 236.222 233.23C236.766 237.128 233.593 241.751 228.155 245.195L216.008 252.809C216.008 253.081 215.918 253.262 215.918 253.534L204.95 290.79C204.496 292.24 203.137 293.237 201.686 293.237C201.414 293.237 201.052 293.237 200.689 293.056C198.876 292.512 197.879 290.699 198.423 288.886L209.21 252.175C209.21 250.271 210.298 248.458 211.929 247.461L224.529 239.575C227.339 237.853 228.699 235.949 229.243 234.952C224.348 233.592 221.266 233.049 219 233.049C216.461 233.049 215.011 233.774 213.198 234.68L203.59 239.847C203.59 239.847 203.499 239.847 203.499 239.938L203.227 240.028C201.052 241.116 199.692 241.751 199.239 243.02C198.332 245.286 196.701 247.099 194.616 248.277C187.636 252.447 170.958 262.327 167.513 264.14C166.607 264.593 165.609 264.865 164.431 264.865C159.989 264.865 154.097 261.783 149.384 258.792L156.817 266.859C157.451 267.584 157.814 268.491 157.723 269.488C157.633 270.485 157.179 271.301 156.364 271.845C156.182 271.935 152.194 274.927 150.472 276.105L150.381 276.196C151.469 276.377 153.554 276.468 155.91 276.468C159.174 276.468 162.89 276.286 165.7 276.105L192.803 261.058C192.894 260.967 193.075 260.967 193.166 260.877L193.619 260.695C193.981 260.514 194.435 260.423 194.888 260.423H195.25C197.063 260.423 198.876 261.421 199.873 262.962C200.327 263.687 200.508 264.593 200.327 265.409C197.789 278.19 195.069 292.421 194.344 297.497C196.066 297.769 199.239 297.769 203.318 297.769C206.762 297.769 210.841 297.679 215.192 297.679C222.535 297.588 231.781 297.497 243.293 297.497C251.723 297.497 258.612 290.608 258.612 282.178V227.972C258.612 219.542 251.723 212.653 243.293 212.653H131.345C122.915 212.653 116.026 219.542 116.026 227.972V282.178C116.026 290.608 122.915 297.497 131.345 297.497L140.138 297.679C141.951 297.679 143.492 299.22 143.492 301.033V321.79L165.519 299.038C166.153 298.404 167.06 298.041 167.966 298.041H176.94C178.753 298.041 180.294 299.582 180.294 301.395C180.294 303.208 178.753 304.749 176.94 304.749H169.326L142.495 332.396C141.86 333.03 140.954 333.393 140.047 333.393C139.594 333.393 139.232 333.302 138.778 333.121C137.509 332.577 136.694 331.399 136.694 330.039V304.296L131.255 304.205C119.108 304.205 109.228 294.325 109.228 282.088V227.882C109.228 215.735 119.108 205.764 131.345 205.764H243.655M182.016 248.096C185.914 245.739 189.449 243.654 191.443 242.476C191.625 242.385 191.806 242.204 191.987 242.113L161.712 237.218C161.44 237.218 161.258 237.128 161.077 237.037C161.077 237.037 160.896 236.946 160.715 236.946C160.533 236.946 160.261 236.946 159.899 237.49C159.627 237.853 159.808 238.306 159.899 238.487L182.016 248.096ZM243.655 199.51H131.345C115.664 199.51 102.883 212.291 102.883 227.972V282.178C102.883 297.588 115.12 310.097 130.348 310.641V330.039C130.348 334.028 132.705 337.563 136.422 339.104C137.6 339.557 138.778 339.829 140.047 339.829C140.047 339.829 140.047 339.829 140.138 339.829C142.767 339.829 145.305 338.741 147.118 336.838L172.045 311.094H176.94C180.203 311.094 183.013 309.553 184.826 307.106C188.543 310.641 193.438 311.004 203.409 311.004C206.762 311.004 210.751 310.913 215.827 310.913C223.169 310.822 232.234 310.732 243.746 310.732C259.427 310.732 272.208 297.951 272.208 282.269V228.063C272.118 212.291 259.337 199.51 243.655 199.51ZM149.837 306.018V301.033C149.837 295.775 145.486 291.334 140.229 291.243L131.436 291.062H131.345C126.36 291.062 122.372 287.073 122.372 282.088V227.882C122.372 222.896 126.36 218.908 131.345 218.908H243.655C248.641 218.908 252.629 222.896 252.629 227.882V282.088C252.629 287.073 248.641 291.062 243.655 291.062C232.053 291.062 222.897 291.152 215.464 291.243H215.374C214.105 291.243 212.836 291.243 211.567 291.334L221.719 256.888L231.69 250.634C239.395 245.83 243.564 238.759 242.658 232.323C242.023 227.61 238.67 223.803 234.047 222.534C227.52 220.721 222.897 219.814 219.09 219.814C214.014 219.814 210.66 221.265 207.397 222.896C207.397 222.896 207.306 222.896 207.306 222.987L197.789 228.063H197.698C196.973 228.426 196.157 228.788 195.341 229.241L164.34 224.165C163.434 223.893 162.074 223.621 160.533 223.621C155.729 223.621 151.469 225.978 148.749 230.057C145.758 234.68 145.939 239.756 147.843 243.745C147.39 243.745 147.027 243.835 146.574 243.835L139.866 244.923C136.331 245.467 133.43 248.005 132.252 251.359C131.074 254.713 131.889 258.52 134.337 261.149L140.41 267.675C137.963 270.757 136.875 274.836 137.691 278.734C138.688 283.81 142.676 287.617 148.024 288.705C149.928 289.067 152.647 289.249 156.364 289.249C161.168 289.249 166.153 288.977 167.604 288.886C169.054 288.795 170.414 288.342 171.683 287.708L184.192 280.728C183.104 286.348 182.469 290.155 182.016 292.784C180.475 291.787 178.753 291.243 176.849 291.243H167.876C165.247 291.243 162.709 292.331 160.896 294.234L149.837 306.018ZM197.245 254.26C197.517 254.078 197.789 253.897 198.151 253.716C200.417 252.356 202.321 250.543 203.771 248.368C203.499 249.183 203.318 250.09 203.227 250.996L201.777 255.801C200.417 255.075 198.876 254.532 197.245 254.26Z" fill="black"/>
<path d="M60.8224 393.492H47.2256L62.5447 347.081H79.7673L95.0864 393.492H81.4895L71.3373 359.771H70.9747L60.8224 393.492ZM58.2843 375.09H83.8463V384.518H58.2843V375.09Z" fill="black" stroke="black" stroke-width="19.738" stroke-miterlimit="10" stroke-linecap="round" stroke-linejoin="round"/>
<path d="M99.709 393.491V358.683H112.218V393.491H99.709ZM106.054 354.967C104.332 354.967 102.882 354.423 101.703 353.245C100.525 352.157 99.8903 350.797 99.8903 349.166C99.8903 347.625 100.525 346.265 101.703 345.087C102.882 343.999 104.332 343.364 106.054 343.364C107.776 343.364 109.227 343.908 110.405 345.087C111.584 346.174 112.218 347.534 112.218 349.166C112.218 350.707 111.584 352.066 110.405 353.245C109.136 354.423 107.686 354.967 106.054 354.967Z" fill="black" stroke="black" stroke-width="19.738" stroke-miterlimit="10" stroke-linecap="round" stroke-linejoin="round"/>
<path d="M118.654 393.492V358.684H130.801V365.301H131.163C131.798 362.853 132.795 361.04 134.155 359.953C135.514 358.774 137.146 358.23 139.05 358.23C139.593 358.23 140.137 358.23 140.681 358.321C141.225 358.412 141.769 358.502 142.222 358.684V369.289C141.588 369.108 140.862 368.927 139.956 368.836C139.05 368.745 138.234 368.655 137.599 368.655C136.33 368.655 135.242 368.927 134.336 369.471C133.339 370.014 132.614 370.83 132.07 371.827C131.526 372.824 131.254 374.003 131.254 375.272V393.401H118.654V393.492Z" fill="black" stroke="black" stroke-width="19.738" stroke-miterlimit="10" stroke-linecap="round" stroke-linejoin="round"/>
<path d="M171.138 361.494C171.047 359.953 170.413 358.774 169.416 357.958C168.419 357.143 166.878 356.689 164.884 356.689C163.615 356.689 162.527 356.871 161.711 357.143C160.895 357.415 160.261 357.868 159.898 358.412C159.535 358.956 159.264 359.59 159.264 360.225C159.264 360.768 159.354 361.312 159.535 361.766C159.807 362.219 160.17 362.581 160.623 362.944C161.167 363.307 161.802 363.578 162.617 363.941C163.433 364.213 164.34 364.485 165.518 364.757L169.325 365.573C171.863 366.117 174.129 366.842 175.942 367.748C177.755 368.655 179.296 369.652 180.475 370.921C181.653 372.099 182.469 373.459 183.013 375C183.557 376.541 183.828 378.172 183.828 379.895C183.828 382.977 183.013 385.515 181.562 387.69C180.021 389.775 177.937 391.407 175.126 392.494C172.316 393.582 168.963 394.126 165.065 394.126C160.986 394.126 157.541 393.491 154.55 392.313C151.559 391.135 149.202 389.322 147.57 386.784C145.939 384.336 145.123 381.073 145.032 377.266H156.997C157.088 378.716 157.451 379.895 158.085 380.892C158.72 381.889 159.626 382.614 160.805 383.067C161.983 383.611 163.343 383.792 164.974 383.792C166.334 383.792 167.422 383.611 168.328 383.248C169.235 382.886 169.96 382.433 170.413 381.889C170.866 381.254 171.138 380.62 171.138 379.895C171.138 379.169 170.866 378.535 170.413 377.991C169.96 377.447 169.235 376.994 168.237 376.541C167.24 376.088 165.881 375.725 164.158 375.362L159.535 374.365C155.456 373.459 152.193 372.008 149.836 369.924C147.48 367.839 146.301 364.938 146.301 361.312C146.301 358.321 147.117 355.783 148.658 353.607C150.29 351.432 152.465 349.71 155.275 348.441C158.085 347.172 161.348 346.537 165.065 346.537C168.781 346.537 172.045 347.172 174.764 348.441C177.483 349.71 179.659 351.432 181.109 353.698C182.559 355.964 183.375 358.593 183.375 361.675H171.138V361.494Z" fill="black" stroke="black" stroke-width="19.738" stroke-miterlimit="10" stroke-linecap="round" stroke-linejoin="round"/>
<path d="M201.323 373.821V393.401H188.813V346.99H200.869V365.21H201.232C202.048 362.944 203.317 361.222 205.13 360.043C206.943 358.774 209.118 358.14 211.747 358.14C214.194 358.14 216.37 358.684 218.183 359.862C219.995 360.95 221.446 362.491 222.443 364.485C223.44 366.479 223.984 368.745 223.893 371.283V393.491H211.384V373.821C211.384 372.099 210.931 370.739 210.115 369.742C209.209 368.745 208.03 368.292 206.399 368.292C205.402 368.292 204.495 368.473 203.77 368.926C203.045 369.38 202.41 370.014 201.957 370.83C201.594 371.736 201.413 372.734 201.323 373.821Z" fill="black" stroke="black" stroke-width="19.738" stroke-miterlimit="10" stroke-linecap="round" stroke-linejoin="round"/>
<path d="M239.847 394.035C237.581 394.035 235.678 393.672 233.955 392.947C232.233 392.222 230.964 391.134 229.967 389.593C228.97 388.052 228.517 386.149 228.517 383.883C228.517 381.979 228.879 380.348 229.514 378.988C230.148 377.628 231.055 376.54 232.233 375.634C233.411 374.728 234.771 374.093 236.312 373.64C237.853 373.187 239.575 372.915 241.298 372.733C243.292 372.552 244.833 372.371 246.011 372.19C247.19 372.008 248.096 371.646 248.549 371.283C249.093 370.92 249.365 370.377 249.365 369.651V369.561C249.365 368.654 249.002 367.929 248.277 367.476C247.552 367.023 246.646 366.751 245.558 366.751C244.38 366.751 243.382 367.023 242.657 367.567C241.932 368.11 241.479 368.926 241.298 369.923H229.786C229.967 367.839 230.601 365.844 231.78 364.031C232.958 362.219 234.771 360.768 237.037 359.68C239.394 358.593 242.204 358.049 245.739 358.049C248.277 358.049 250.453 358.321 252.447 358.955C254.441 359.499 256.073 360.315 257.523 361.403C258.883 362.4 259.971 363.669 260.696 365.029C261.421 366.388 261.783 367.929 261.783 369.561V393.401H250.09V388.506H249.909C249.184 389.775 248.368 390.862 247.371 391.678C246.374 392.494 245.286 393.038 244.017 393.401C242.748 393.854 241.298 394.035 239.847 394.035ZM243.926 386.149C244.923 386.149 245.739 385.968 246.646 385.514C247.461 385.152 248.187 384.517 248.731 383.792C249.274 383.067 249.546 382.16 249.546 381.073V378.172C249.184 378.353 248.821 378.444 248.459 378.535C248.096 378.625 247.733 378.807 247.28 378.897C246.827 378.988 246.464 379.079 245.921 379.169C245.467 379.26 245.014 379.351 244.47 379.441C243.473 379.622 242.748 379.804 242.113 380.166C241.479 380.529 241.026 380.891 240.754 381.435C240.482 381.889 240.301 382.432 240.301 383.067C240.301 384.064 240.663 384.789 241.298 385.333C242.023 385.877 242.839 386.149 243.926 386.149Z" fill="black" stroke="black" stroke-width="19.738" stroke-miterlimit="10" stroke-linecap="round" stroke-linejoin="round"/>
<path d="M267.856 393.492V358.684H280.003V365.301H280.366C281 362.853 281.997 361.04 283.357 359.953C284.716 358.774 286.348 358.23 288.252 358.23C288.796 358.23 289.339 358.23 289.883 358.321C290.427 358.412 290.971 358.502 291.424 358.684V369.289C290.79 369.108 290.065 368.927 289.158 368.836C288.252 368.745 287.436 368.655 286.801 368.655C285.532 368.655 284.445 368.927 283.538 369.471C282.541 370.014 281.816 370.83 281.272 371.827C280.728 372.824 280.456 374.003 280.456 375.272V393.401H267.856V393.492Z" fill="black" stroke="black" stroke-width="19.738" stroke-miterlimit="10" stroke-linecap="round" stroke-linejoin="round"/>
<path d="M310.188 394.126C306.472 394.126 303.299 393.401 300.58 391.951C297.86 390.5 295.866 388.506 294.416 385.787C292.965 383.067 292.24 379.895 292.24 376.178C292.24 372.552 292.965 369.471 294.416 366.751C295.866 364.032 297.951 361.947 300.58 360.497C303.208 358.956 306.381 358.23 309.916 358.23C312.545 358.23 314.902 358.684 317.077 359.5C319.253 360.315 321.065 361.494 322.516 363.035C324.057 364.576 325.235 366.479 326.051 368.655C326.867 370.83 327.32 373.368 327.32 376.088V378.988H296.138V372.009H315.717C315.717 371.011 315.445 370.105 314.992 369.38C314.539 368.655 313.814 368.02 312.998 367.567C312.182 367.114 311.276 366.932 310.188 366.932C309.191 366.932 308.284 367.114 307.378 367.567C306.562 368.02 305.837 368.564 305.384 369.38C304.84 370.105 304.568 371.011 304.568 372.009V379.442C304.568 380.529 304.84 381.526 305.293 382.433C305.746 383.339 306.472 383.974 307.287 384.518C308.194 385.062 309.191 385.243 310.46 385.243C311.366 385.243 312.092 385.152 312.817 384.88C313.542 384.608 314.176 384.246 314.63 383.792C315.174 383.339 315.536 382.795 315.808 382.161H327.229C326.867 384.608 325.87 386.693 324.419 388.415C322.969 390.228 320.975 391.588 318.618 392.585C316.261 393.582 313.451 394.126 310.188 394.126Z" fill="black" stroke="black" stroke-width="19.738" stroke-miterlimit="10" stroke-linecap="round" stroke-linejoin="round"/>
<path d="M273.296 435.732C273.931 434.735 274.837 434.372 275.653 434.009C276.106 433.828 276.469 433.647 276.378 433.012C276.287 432.287 276.559 432.015 277.194 432.468C277.647 432.831 278.01 432.74 278.372 432.378C279.097 431.834 279.823 431.109 281.001 431.199C280.457 432.196 279.551 432.378 278.735 432.831C278.554 432.922 278.282 433.012 278.282 433.284C278.282 433.556 278.554 433.737 278.826 433.647C280.82 433.284 281.454 434.735 282.27 436.094C282.995 437.363 283.086 437.363 284.446 436.638C287.346 434.916 290.247 433.194 293.148 431.562C294.598 430.746 295.051 430.837 295.958 432.287C296.139 432.559 296.229 432.831 296.411 433.103C297.136 434.372 297.045 434.825 295.867 435.55C292.876 437.545 289.975 439.539 286.984 441.442C286.168 441.986 285.987 442.439 286.53 443.346C287.981 445.884 288.887 448.603 289.794 451.413C290.247 452.954 290.428 453.045 291.878 452.41C292.422 452.229 293.057 451.957 293.601 451.867C294.507 451.595 295.142 452.048 295.414 452.864C295.686 453.679 295.323 454.133 294.598 454.495C293.329 455.13 292.241 455.855 291.063 456.58C289.703 457.396 288.253 458.121 286.893 459.028C286.349 459.39 285.715 459.209 285.352 458.665C284.899 458.121 284.717 457.487 285.261 456.852C285.805 456.127 286.44 455.674 287.165 455.13C287.89 454.586 287.981 454.042 287.256 453.317C285.08 451.051 282.995 448.694 281.364 446.065C280.91 445.34 280.457 445.431 279.823 445.703C276.65 447.334 273.477 449.057 270.214 450.688C268.945 451.323 268.492 451.232 267.676 449.963C266.226 447.516 266.316 447.425 268.764 445.975C271.483 444.343 274.203 442.711 277.013 441.17C277.828 440.717 278.01 440.173 277.466 439.448C277.194 438.995 276.922 438.542 276.65 438.088C276.106 437.182 276.016 436.366 276.65 435.46C276.831 435.097 277.194 434.735 276.741 434.463C276.469 434.191 276.106 434.644 275.834 434.825C274.928 435.097 274.384 435.641 273.296 435.732Z" fill="white"/>
<path d="M279.641 -17.9482L261.874 60.6413L336.203 178.571" stroke="#3FEA9C" stroke-width="4.2296" stroke-miterlimit="10"/>
<path d="M60.8224 393.492H47.2256L62.5447 347.081H79.7673L95.0864 393.492H81.4895L71.3373 359.771H70.9747L60.8224 393.492ZM58.2843 375.09H83.8463V384.518H58.2843V375.09Z" fill="#3FEA9C"/>
<path d="M99.709 393.491V358.683H112.218V393.491H99.709ZM106.054 354.967C104.332 354.967 102.882 354.423 101.703 353.245C100.525 352.157 99.8903 350.797 99.8903 349.166C99.8903 347.625 100.525 346.265 101.703 345.087C102.882 343.999 104.332 343.364 106.054 343.364C107.776 343.364 109.227 343.908 110.405 345.087C111.584 346.174 112.218 347.534 112.218 349.166C112.218 350.707 111.584 352.066 110.405 353.245C109.136 354.423 107.686 354.967 106.054 354.967Z" fill="#3FEA9C"/>
<path d="M118.654 393.492V358.684H130.801V365.301H131.163C131.798 362.853 132.795 361.04 134.155 359.953C135.514 358.774 137.146 358.23 139.05 358.23C139.593 358.23 140.137 358.23 140.681 358.321C141.225 358.412 141.769 358.502 142.222 358.684V369.289C141.588 369.108 140.862 368.927 139.956 368.836C139.05 368.745 138.234 368.655 137.599 368.655C136.33 368.655 135.242 368.927 134.336 369.471C133.339 370.014 132.614 370.83 132.07 371.827C131.526 372.824 131.254 374.003 131.254 375.272V393.401H118.654V393.492Z" fill="#3FEA9C"/>
<path d="M171.138 361.494C171.047 359.953 170.413 358.774 169.416 357.958C168.419 357.143 166.878 356.689 164.884 356.689C163.615 356.689 162.527 356.871 161.711 357.143C160.895 357.415 160.261 357.868 159.898 358.412C159.535 358.956 159.264 359.59 159.264 360.225C159.264 360.768 159.354 361.312 159.535 361.766C159.807 362.219 160.17 362.581 160.623 362.944C161.167 363.307 161.802 363.578 162.617 363.941C163.433 364.213 164.34 364.485 165.518 364.757L169.325 365.573C171.863 366.117 174.129 366.842 175.942 367.748C177.755 368.655 179.296 369.652 180.475 370.921C181.653 372.099 182.469 373.459 183.013 375C183.557 376.541 183.828 378.172 183.828 379.895C183.828 382.977 183.013 385.515 181.562 387.69C180.021 389.775 177.937 391.407 175.126 392.494C172.316 393.582 168.963 394.126 165.065 394.126C160.986 394.126 157.541 393.491 154.55 392.313C151.559 391.135 149.202 389.322 147.57 386.784C145.939 384.336 145.123 381.073 145.032 377.266H156.997C157.088 378.716 157.451 379.895 158.085 380.892C158.72 381.889 159.626 382.614 160.805 383.067C161.983 383.611 163.343 383.792 164.974 383.792C166.334 383.792 167.422 383.611 168.328 383.248C169.235 382.886 169.96 382.433 170.413 381.889C170.866 381.254 171.138 380.62 171.138 379.895C171.138 379.169 170.866 378.535 170.413 377.991C169.96 377.447 169.235 376.994 168.237 376.541C167.24 376.088 165.881 375.725 164.158 375.362L159.535 374.365C155.456 373.459 152.193 372.008 149.836 369.924C147.48 367.839 146.301 364.938 146.301 361.312C146.301 358.321 147.117 355.783 148.658 353.607C150.29 351.432 152.465 349.71 155.275 348.441C158.085 347.172 161.348 346.537 165.065 346.537C168.781 346.537 172.045 347.172 174.764 348.441C177.483 349.71 179.659 351.432 181.109 353.698C182.559 355.964 183.375 358.593 183.375 361.675H171.138V361.494Z" fill="#3FEA9C"/>
<path d="M201.323 373.821V393.401H188.813V346.99H200.869V365.21H201.232C202.048 362.944 203.317 361.222 205.13 360.043C206.943 358.774 209.118 358.14 211.747 358.14C214.194 358.14 216.37 358.684 218.183 359.862C219.995 360.95 221.446 362.491 222.443 364.485C223.44 366.479 223.984 368.745 223.893 371.283V393.491H211.384V373.821C211.384 372.099 210.931 370.739 210.115 369.742C209.209 368.745 208.03 368.292 206.399 368.292C205.402 368.292 204.495 368.473 203.77 368.926C203.045 369.38 202.41 370.014 201.957 370.83C201.594 371.736 201.413 372.734 201.323 373.821Z" fill="#3FEA9C"/>
<path d="M239.847 394.035C237.581 394.035 235.678 393.672 233.955 392.947C232.233 392.222 230.964 391.134 229.967 389.593C228.97 388.052 228.517 386.149 228.517 383.883C228.517 381.979 228.879 380.348 229.514 378.988C230.148 377.628 231.055 376.54 232.233 375.634C233.411 374.728 234.771 374.093 236.312 373.64C237.853 373.187 239.575 372.915 241.298 372.733C243.292 372.552 244.833 372.371 246.011 372.19C247.19 372.008 248.096 371.646 248.549 371.283C249.093 370.92 249.365 370.377 249.365 369.651V369.561C249.365 368.654 249.002 367.929 248.277 367.476C247.552 367.023 246.646 366.751 245.558 366.751C244.38 366.751 243.382 367.023 242.657 367.567C241.932 368.11 241.479 368.926 241.298 369.923H229.786C229.967 367.839 230.601 365.844 231.78 364.031C232.958 362.219 234.771 360.768 237.037 359.68C239.394 358.593 242.204 358.049 245.739 358.049C248.277 358.049 250.453 358.321 252.447 358.955C254.441 359.499 256.073 360.315 257.523 361.403C258.883 362.4 259.971 363.669 260.696 365.029C261.421 366.388 261.783 367.929 261.783 369.561V393.401H250.09V388.506H249.909C249.184 389.775 248.368 390.862 247.371 391.678C246.374 392.494 245.286 393.038 244.017 393.401C242.748 393.854 241.298 394.035 239.847 394.035ZM243.926 386.149C244.923 386.149 245.739 385.968 246.646 385.514C247.461 385.152 248.187 384.517 248.731 383.792C249.274 383.067 249.546 382.16 249.546 381.073V378.172C249.184 378.353 248.821 378.444 248.459 378.535C248.096 378.625 247.733 378.807 247.28 378.897C246.827 378.988 246.464 379.079 245.921 379.169C245.467 379.26 245.014 379.351 244.47 379.441C243.473 379.622 242.748 379.804 242.113 380.166C241.479 380.529 241.026 380.891 240.754 381.435C240.482 381.889 240.301 382.432 240.301 383.067C240.301 384.064 240.663 384.789 241.298 385.333C242.023 385.877 242.839 386.149 243.926 386.149Z" fill="#3FEA9C"/>
<path d="M267.856 393.492V358.684H280.003V365.301H280.366C281 362.853 281.997 361.04 283.357 359.953C284.716 358.774 286.348 358.23 288.252 358.23C288.796 358.23 289.339 358.23 289.883 358.321C290.427 358.412 290.971 358.502 291.424 358.684V369.289C290.79 369.108 290.065 368.927 289.158 368.836C288.252 368.745 287.436 368.655 286.801 368.655C285.532 368.655 284.445 368.927 283.538 369.471C282.541 370.014 281.816 370.83 281.272 371.827C280.728 372.824 280.456 374.003 280.456 375.272V393.401H267.856V393.492Z" fill="#3FEA9C"/>
<path d="M310.188 394.126C306.472 394.126 303.299 393.401 300.58 391.951C297.86 390.5 295.866 388.506 294.416 385.787C292.965 383.067 292.24 379.895 292.24 376.178C292.24 372.552 292.965 369.471 294.416 366.751C295.866 364.032 297.951 361.947 300.58 360.497C303.208 358.956 306.381 358.23 309.916 358.23C312.545 358.23 314.902 358.684 317.077 359.5C319.253 360.315 321.065 361.494 322.516 363.035C324.057 364.576 325.235 366.479 326.051 368.655C326.867 370.83 327.32 373.368 327.32 376.088V378.988H296.138V372.009H315.717C315.717 371.011 315.445 370.105 314.992 369.38C314.539 368.655 313.814 368.02 312.998 367.567C312.182 367.114 311.276 366.932 310.188 366.932C309.191 366.932 308.284 367.114 307.378 367.567C306.562 368.02 305.837 368.564 305.384 369.38C304.84 370.105 304.568 371.011 304.568 372.009V379.442C304.568 380.529 304.84 381.526 305.293 382.433C305.746 383.339 306.472 383.974 307.287 384.518C308.194 385.062 309.191 385.243 310.46 385.243C311.366 385.243 312.092 385.152 312.817 384.88C313.542 384.608 314.176 384.246 314.63 383.792C315.174 383.339 315.536 382.795 315.808 382.161H327.229C326.867 384.608 325.87 386.693 324.419 388.415C322.969 390.228 320.975 391.588 318.618 392.585C316.261 393.582 313.451 394.126 310.188 394.126Z" fill="#3FEA9C"/>
<path d="M294.144 463.197C299.945 476.341 303.118 490.935 303.118 506.254C303.118 565.536 254.985 613.669 195.703 613.669" stroke="white" stroke-width="5.1695" stroke-miterlimit="10"/>
<path d="M354.876 579.314L99.7095 506.888L-25.0186 471.809" stroke="#3FEA9C" stroke-width="9.869" stroke-miterlimit="10"/>
<path d="M354.876 623.187C379.106 623.187 398.749 603.545 398.749 579.315C398.749 555.085 379.106 535.442 354.876 535.442C330.646 535.442 311.004 555.085 311.004 579.315C311.004 603.545 330.646 623.187 354.876 623.187Z" fill="white"/>
<mask id="mask2_7564_31735" style="mask-type:luminance" maskUnits="userSpaceOnUse" x="311" y="535" width="88" height="89">
<path d="M354.876 623.187C379.106 623.187 398.749 603.545 398.749 579.315C398.749 555.085 379.106 535.442 354.876 535.442C330.646 535.442 311.004 555.085 311.004 579.315C311.004 603.545 330.646 623.187 354.876 623.187Z" fill="white"/>
</mask>
<g mask="url(#mask2_7564_31735)">
<path d="M434.382 549.592L328.112 655.862L334.458 662.208L440.728 555.938L434.382 549.592Z" fill="black"/>
<path d="M428.702 543.974L322.432 650.244L328.2 656.013L434.47 549.743L428.702 543.974Z" fill="black"/>
<path d="M423.087 538.29L316.816 644.561L322.008 649.752L428.278 543.482L423.087 538.29Z" fill="black"/>
<path d="M417.406 532.672L311.136 638.942L315.751 643.557L422.021 537.287L417.406 532.672Z" fill="black"/>
<path d="M411.79 526.99L305.52 633.26L309.622 637.362L415.892 531.092L411.79 526.99Z" fill="black"/>
<path d="M406.045 521.307L299.775 627.577L303.301 631.102L409.571 524.832L406.045 521.307Z" fill="black"/>
<path d="M400.43 515.624L294.16 621.895L297.109 624.843L403.379 518.573L400.43 515.624Z" fill="black"/>
<path d="M394.75 510.006L288.479 616.276L290.851 618.648L397.121 512.378L394.75 510.006Z" fill="black"/>
<path d="M389.134 504.323L282.864 610.593L284.659 612.387L390.929 506.117L389.134 504.323Z" fill="black"/>
<path d="M383.454 498.705L277.184 604.975L278.466 606.257L384.736 499.986L383.454 498.705Z" fill="black"/>
<path d="M377.837 493.022L271.567 599.292L272.272 599.997L378.543 493.727L377.837 493.022Z" fill="black"/>
<path d="M372.158 487.404L265.888 593.674L266.016 593.802L372.286 487.532L372.158 487.404Z" fill="black"/>
</g>
<path d="M99.7101 506.888L-32.8135 313.813" stroke="#3FEA9C" stroke-width="5.6394" stroke-miterlimit="10"/>
<path d="M-42.0596 635.242L95.5401 512.236" stroke="#3FEA9C" stroke-width="5.6394" stroke-miterlimit="10"/>
<path d="M101.433 514.685L126.179 598.985" stroke="#3FEA9C" stroke-width="8.4591" stroke-miterlimit="10"/>
<path d="M126.179 618.201C136.792 618.201 145.396 609.598 145.396 598.984C145.396 588.371 136.792 579.768 126.179 579.768C115.566 579.768 106.962 588.371 106.962 598.984C106.962 609.598 115.566 618.201 126.179 618.201Z" fill="#3FEA9C"/>
<path d="M345.631 178.57C345.631 183.828 341.37 187.997 336.204 187.997C331.037 187.997 326.776 183.737 326.776 178.57" fill="white"/>
<path d="M326.776 178.571C326.776 173.313 331.037 169.144 336.204 169.144C341.37 169.144 345.631 173.404 345.631 178.571" fill="white"/>
<path d="M183.829 30.9102L261.875 60.6418" stroke="#3FEA9C" stroke-width="2.3498" stroke-miterlimit="10"/>
<path d="M271.302 60.0967C271.302 65.3541 267.041 69.5238 261.874 69.5238C256.617 69.5238 252.447 65.2635 252.447 60.0967" fill="white"/>
<path d="M252.447 60.097C252.447 54.8396 256.708 50.6699 261.874 50.6699C267.132 50.6699 271.302 54.9303 271.302 60.097" fill="white"/>
<path d="M49.8545 242.567L64.539 128.354L202.048 159.717" stroke="#3FEA9C" stroke-width="3.2897" stroke-miterlimit="10" stroke-dasharray="1.88 1.88"/>
<path d="M142.222 196.518L64.5391 130.619" stroke="#3FEA9C" stroke-width="2.3498" stroke-miterlimit="10"/>
<path d="M80.1301 129.169C80.1301 137.508 73.3316 144.307 64.9923 144.307C56.6529 144.307 49.8545 137.508 49.8545 129.169" fill="white"/>
<path d="M49.8545 129.169C49.8545 120.83 56.6529 114.031 64.9923 114.031C73.3316 114.031 80.1301 120.83 80.1301 129.169" fill="white"/>
<path d="M247.371 169.597C246.465 168.057 245.287 166.878 243.746 166.062L232.234 163.615L219.906 145.576L218.002 145.214L221.266 161.439L207.125 159.445L203.862 153.553L202.502 160.08L247.371 169.597Z" fill="#3FEA9C"/>
<path d="M247.371 169.598C245.921 170.595 244.38 171.229 242.567 171.32L231.055 168.873L212.473 180.294L210.569 179.931L220.178 166.425L206.4 162.528L200.961 166.607L202.321 160.08L247.371 169.598Z" fill="white"/>
<path d="M43.8721 278.19C44.7785 277.556 45.5037 276.74 46.0476 275.743L47.226 268.219L58.466 259.608L58.6473 258.43L48.3137 261.058L49.1295 251.813L52.846 249.456L48.5856 248.821L43.8721 278.19Z" fill="url(#paint1_linear_7564_31735)"/>
<path d="M43.8721 278.19C43.147 277.284 42.6937 276.286 42.6031 275.199L43.7815 267.675L35.8047 255.982L35.986 254.803L45.0505 260.514L47.1354 251.45L44.3253 248.096L48.5857 248.73L43.8721 278.19Z" fill="url(#paint2_linear_7564_31735)"/>
<path d="M161.439 21.5728C162.165 21.2103 162.98 21.1196 163.706 21.2103L168.691 23.2951L178.028 19.8506L178.843 20.2132L173.405 25.38L179.206 28.3713L182.016 27.0116L180.838 29.8216L161.439 21.5728Z" fill="#3FEA9C"/>
<path d="M149.656 445.159L99.71 506.889" stroke="white" stroke-width="3.2897" stroke-miterlimit="10" stroke-dasharray="2.82 2.82"/>
<path d="M99.71 523.567C108.921 523.567 116.389 516.1 116.389 506.889C116.389 497.677 108.921 490.21 99.71 490.21C90.4986 490.21 83.0312 497.677 83.0312 506.889C83.0312 516.1 90.4986 523.567 99.71 523.567Z" fill="white"/>
<path d="M158.358 442.35C158.358 446.066 155.367 449.057 151.65 449.057C147.934 449.057 144.942 446.066 144.942 442.35" fill="#3FEA9C"/>
<path d="M144.942 442.349C144.942 438.633 147.934 435.642 151.65 435.642C155.367 435.642 158.358 438.633 158.358 442.349" fill="#3FEA9C"/>
</g>
<defs>
<linearGradient id="paint0_linear_7564_31735" x1="176.953" y1="259.356" x2="297.002" y2="745.866" gradientUnits="userSpaceOnUse">
<stop stop-color="white"/>
<stop offset="0.0698547" stop-color="#CDCCCC"/>
<stop offset="0.1426" stop-color="#A09E9F"/>
<stop offset="0.2183" stop-color="#7A7778"/>
<stop offset="0.2958" stop-color="#5A5758"/>
<stop offset="0.3759" stop-color="#423E3F"/>
<stop offset="0.4595" stop-color="#312D2E"/>
<stop offset="0.5488" stop-color="#262223"/>
<stop offset="0.6541" stop-color="#231F20"/>
</linearGradient>
<linearGradient id="paint1_linear_7564_31735" x1="43.9139" y1="263.468" x2="58.6608" y2="263.468" gradientUnits="userSpaceOnUse">
<stop stop-color="white"/>
<stop offset="1" stop-color="#3FEA9C"/>
</linearGradient>
<linearGradient id="paint2_linear_7564_31735" x1="35.7866" y1="263.131" x2="48.547" y2="263.131" gradientUnits="userSpaceOnUse">
<stop stop-color="white"/>
<stop offset="1" stop-color="#3FEA9C"/>
</linearGradient>
</defs>
</svg>
