<svg width="170" height="141" viewBox="0 0 170 141" fill="none" xmlns="http://www.w3.org/2000/svg">
<path d="M140.772 6.4358C152.919 6.4358 162.89 16.3162 162.89 28.5533V82.7592C162.89 94.9057 153.009 104.877 140.772 104.877C129.351 104.877 120.196 104.967 112.763 105.058C107.777 105.149 103.698 105.149 100.435 105.149C91.008 105.149 87.926 104.695 86.1131 102.883C85.2973 102.067 84.8441 100.888 84.8441 99.7099C84.8441 97.0812 88.198 79.4053 90.1922 69.4344L65.7179 83.0312C65.2647 83.3031 64.8115 83.3937 64.2676 83.4844C63.3611 83.575 58.1943 83.847 53.3901 83.847C50.5801 83.847 47.9514 83.7564 46.3198 83.3938C43.4191 82.8499 41.5156 81.037 40.9717 78.4989C40.4278 75.8702 41.7875 72.6976 43.963 71.1566C44.5975 70.7034 45.6853 69.9782 46.6824 69.2531L36.0769 57.7411C35.2611 56.8347 34.9891 55.5656 35.3517 54.3872C35.7143 53.2089 36.802 52.393 37.9804 52.1211L44.6882 51.0334C44.8695 51.0334 45.0508 50.9427 45.232 50.9427C45.9572 50.9427 46.5917 51.124 47.1356 51.5772C52.7556 55.475 59.2821 58.7382 61.4576 58.7382C61.5482 58.7382 61.6389 58.7382 61.7295 58.7382C63.2705 57.9224 67.2589 55.5656 71.7912 52.9369L53.4808 45.0507C53.2088 44.9601 52.9369 44.7788 52.665 44.5069C50.6708 42.7846 48.4046 38.5243 51.124 34.3546C52.665 31.9978 54.9311 30.7288 57.5598 30.7288C58.5569 30.7288 59.3727 30.9101 59.9166 31.0914L93.7273 36.6207C94.9964 35.7143 96.2654 35.0798 97.5344 34.4453L97.7157 34.3546L107.324 29.1878C110.044 27.7375 112.4 26.7404 116.026 26.7404C119.108 26.7404 123.187 27.4655 129.26 29.1878C131.526 29.8223 132.977 31.5446 133.339 33.7201C133.883 37.6178 130.711 42.2408 125.272 45.6853L113.125 53.2995C113.125 53.5714 113.035 53.7527 113.035 54.0246L102.067 91.2799C101.613 92.7302 100.254 93.7273 98.8035 93.7273C98.5315 93.7273 98.169 93.7273 97.8064 93.546C95.9935 93.0022 94.9964 91.1893 95.5403 89.3763L106.327 52.665C106.327 50.7614 107.415 48.9485 109.046 47.9514L121.646 40.0653C124.456 38.343 125.816 36.4394 126.36 35.4423C121.465 34.0826 118.383 33.5388 116.117 33.5388C113.579 33.5388 112.128 34.264 110.315 35.1704L100.707 40.3372C100.707 40.3372 100.616 40.3372 100.616 40.4278L100.344 40.5185C98.169 41.6062 96.8093 42.2408 96.3561 43.5098C95.4496 45.7759 93.818 47.5888 91.7331 48.7672C84.7534 52.9369 68.0747 62.8173 64.6302 64.6302C63.7237 65.0834 62.7266 65.3553 61.5482 65.3553C57.1066 65.3553 51.2147 62.2734 46.5011 59.2821L53.934 67.3495C54.5685 68.0747 54.9311 68.9811 54.8405 69.9782C54.7498 70.9753 54.2966 71.7911 53.4808 72.335C53.2995 72.4257 49.3111 75.417 47.5888 76.5954L47.4982 76.686C48.5859 76.8673 50.6708 76.9579 53.0276 76.9579C56.2908 76.9579 60.0073 76.7767 62.8173 76.5954L89.9202 61.5482C90.0109 61.4576 90.1922 61.4576 90.2828 61.3669L90.736 61.1856C91.0986 61.0044 91.5518 60.9137 92.0051 60.9137H92.3677C94.1806 60.9137 95.9935 61.9108 96.9906 63.4518C97.4438 64.1769 97.6251 65.0834 97.4438 65.8992C94.9057 78.6802 92.1864 92.9115 91.4612 97.9877C93.1835 98.2596 96.3561 98.2596 100.435 98.2596C103.88 98.2596 107.959 98.169 112.31 98.169C119.652 98.0783 128.898 97.9877 140.41 97.9877C148.84 97.9877 155.729 91.0986 155.729 82.6686V28.4627C155.729 20.0326 148.84 13.1436 140.41 13.1436H28.4626C20.0326 13.1436 13.1436 20.0326 13.1436 28.4627V82.6686C13.1436 91.0986 20.0326 97.9877 28.4626 97.9877L37.2552 98.169C39.0682 98.169 40.6091 99.7099 40.6091 101.523V122.281L62.636 99.5286C63.2705 98.8941 64.1769 98.5315 65.0834 98.5315H74.0573C75.8702 98.5315 77.4112 100.073 77.4112 101.885C77.4112 103.698 75.8702 105.239 74.0573 105.239H66.4431L39.612 132.886C38.9775 133.521 38.0711 133.883 37.1646 133.883C36.7114 133.883 36.3488 133.793 35.8956 133.611C34.6265 133.067 33.8107 131.889 33.8107 130.529V104.786L28.372 104.695C16.2255 104.695 6.34518 94.8151 6.34518 82.5779V28.372C6.34518 16.2255 16.2255 6.25453 28.4626 6.25453H140.772M79.1334 48.5859C83.0312 46.2291 86.5664 44.1443 88.5605 42.9659C88.7418 42.8753 88.9231 42.694 89.1044 42.6033L58.8289 37.7085C58.5569 37.7085 58.3756 37.6178 58.1943 37.5272C58.1943 37.5272 58.0131 37.4365 57.8318 37.4365C57.6505 37.4365 57.3785 37.4365 57.0159 37.9804C56.744 38.343 56.9253 38.7962 57.0159 38.9775L79.1334 48.5859ZM140.772 0H28.4626C12.781 0 0 12.781 0 28.4627V82.6686C0 98.0783 12.2371 110.587 27.4656 111.131V130.529C27.4656 134.518 29.8223 138.053 33.5388 139.594C34.7172 140.047 35.8956 140.319 37.1646 140.319C37.1646 140.319 37.1646 140.319 37.2552 140.319C39.884 140.319 42.422 139.231 44.235 137.328L69.1624 111.584H74.0573C77.3205 111.584 80.1305 110.044 81.9434 107.596C85.6599 111.131 90.5548 111.494 100.526 111.494C103.88 111.494 107.868 111.403 112.944 111.403C120.286 111.313 129.351 111.222 140.863 111.222C156.545 111.222 169.326 98.4409 169.326 82.7592V28.5533C169.235 12.781 156.454 0 140.772 0ZM46.9543 106.508V101.523C46.9543 96.2654 42.6033 91.8238 37.3459 91.7331L28.5533 91.5519H28.4626C23.4772 91.5519 19.4888 87.5634 19.4888 82.5779V28.372C19.4888 23.3865 23.4772 19.3981 28.4626 19.3981H140.772C145.758 19.3981 149.746 23.3865 149.746 28.372V82.5779C149.746 87.5634 145.758 91.5519 140.772 91.5519C129.17 91.5519 120.015 91.6425 112.582 91.7331H112.491C111.222 91.7331 109.953 91.7331 108.684 91.8238L118.836 57.3785L128.807 51.124C136.512 46.3198 140.682 39.2494 139.775 32.8136C139.141 28.1001 135.787 24.293 131.164 23.0239C124.637 21.211 120.015 20.3046 116.207 20.3046C111.131 20.3046 107.777 21.7549 104.514 23.3865C104.514 23.3865 104.423 23.3865 104.423 23.4772L94.9057 28.5533H94.8151C94.0899 28.9159 93.2741 29.2785 92.4583 29.7317L61.4576 24.6555C60.5511 24.3836 59.1914 24.1117 57.6505 24.1117C52.8463 24.1117 48.5859 26.4684 45.8666 30.5475C42.8753 35.1704 43.0566 40.2465 44.9601 44.2349C44.5069 44.2349 44.1443 44.3256 43.6911 44.3256L36.9833 45.4133C33.4482 45.9572 30.5475 48.4953 29.3691 51.8492C28.1907 55.203 29.0065 59.0102 31.4539 61.6389L37.5272 68.1653C35.0798 71.2473 33.992 75.3263 34.8078 79.2241C35.8049 84.3002 39.7933 88.1073 45.1414 89.1951C47.045 89.5577 49.7643 89.7389 53.4808 89.7389C58.285 89.7389 63.2705 89.467 64.7208 89.3763C66.1711 89.2857 67.5308 88.8325 68.7999 88.198L81.3089 81.2183C80.2212 86.8383 79.5867 90.6454 79.1334 93.2741C77.5925 92.277 75.8702 91.7331 73.9666 91.7331H64.9927C62.364 91.7331 59.826 92.8209 58.0131 94.7244L46.9543 106.508ZM94.3618 54.7498C94.6338 54.5685 94.9057 54.3872 95.2683 54.2059C97.5344 52.8463 99.438 51.0334 100.888 48.8579C100.616 49.6737 100.435 50.5801 100.344 51.4866L98.8941 56.2908C97.5344 55.5656 95.9935 55.0218 94.3618 54.7498Z" fill="black"/>
</svg>
