<svg width="92" height="16" viewBox="0 0 92 16" fill="none" xmlns="http://www.w3.org/2000/svg">
<path d="M12.4545 8.43817L6.07204 14.5391L8.45921 8.99742L8.73459 8.35814L8.04085 8.30128L5.58045 8.09961H18.2902C18.1423 8.16743 17.9825 8.23302 17.8085 8.29961H12.8H12.5995L12.4545 8.43817ZM0.5 8.09961H1.41207L0.5 9.15569V8.09961Z" fill="white" stroke="white"/>
<path d="M8.45921 6.30219L6.00192 0.597765L12.4546 6.76156L12.5996 6.9H12.8H17.8085C18.0664 6.99868 18.2931 7.09518 18.4961 7.2H5.58046L8.04085 6.99833L8.73459 6.94146L8.45921 6.30219ZM0.5 6.14392L1.41207 7.2H0.5V6.14392Z" fill="white" stroke="white"/>
<path d="M36.4545 8.43817L30.072 14.5391L32.4592 8.99742L32.7346 8.35814L32.0408 8.30128L29.5805 8.09961H42.2902C42.1423 8.16743 41.9825 8.23302 41.8085 8.29961H36.8H36.5995L36.4545 8.43817ZM24.5 8.09961H25.4121L24.5 9.15569V8.09961Z" fill="white" stroke="white"/>
<path d="M32.4592 6.30219L30.0019 0.597765L36.4546 6.76156L36.5996 6.9H36.8H41.8085C42.0664 6.99868 42.2931 7.09518 42.4961 7.2H29.5805L32.0408 6.99833L32.7346 6.94146L32.4592 6.30219ZM24.5 6.14392L25.4121 7.2H24.5V6.14392Z" fill="white" stroke="white"/>
<path d="M60.4545 8.43817L54.072 14.5391L56.4592 8.99742L56.7346 8.35814L56.0408 8.30128L53.5805 8.09961H66.2902C66.1423 8.16743 65.9825 8.23302 65.8085 8.29961H60.8H60.5995L60.4545 8.43817ZM48.5 8.09961H49.4121L48.5 9.15569V8.09961Z" fill="white" stroke="white"/>
<path d="M56.4592 6.30219L54.0019 0.597765L60.4546 6.76156L60.5996 6.9H60.8H65.8085C66.0664 6.99868 66.2931 7.09518 66.4961 7.2H53.5805L56.0408 6.99833L56.7346 6.94146L56.4592 6.30219ZM48.5 6.14392L49.4121 7.2H48.5V6.14392Z" fill="white" stroke="white"/>
<path d="M84.4545 8.43817L78.072 14.5391L80.4592 8.99742L80.7346 8.35814L80.0408 8.30128L77.5805 8.09961H90.2902C90.1423 8.16743 89.9825 8.23302 89.8085 8.29961H84.8H84.5995L84.4545 8.43817ZM72.5 8.09961H73.4121L72.5 9.15569V8.09961Z" fill="white" stroke="white"/>
<path d="M80.4592 6.30219L78.0019 0.597765L84.4546 6.76156L84.5996 6.9H84.8H89.8085C90.0664 6.99868 90.2931 7.09518 90.4961 7.2H77.5805L80.0408 6.99833L80.7346 6.94146L80.4592 6.30219ZM72.5 6.14392L73.4121 7.2H72.5V6.14392Z" fill="white" stroke="white"/>
</svg>
