<svg width="93" height="14" viewBox="0 0 93 14" fill="none" xmlns="http://www.w3.org/2000/svg">
<rect x="0.75" y="3.75" width="16.5" height="9.5" rx="2.25" fill="white" stroke="white" stroke-width="1.5"/>
<path d="M6 4V3C6 1.89543 6.89543 1 8 1H10C11.1046 1 12 1.89543 12 3V4" stroke="white" stroke-width="1.5"/>
<rect x="25.75" y="3.75" width="16.5" height="9.5" rx="2.25" fill="white" stroke="white" stroke-width="1.5"/>
<path d="M31 4V3C31 1.89543 31.8954 1 33 1H35C36.1046 1 37 1.89543 37 3V4" stroke="white" stroke-width="1.5"/>
<rect x="50.75" y="3.75" width="16.5" height="9.5" rx="2.25" fill="white" stroke="white" stroke-width="1.5"/>
<path d="M56 4V3C56 1.89543 56.8954 1 58 1H60C61.1046 1 62 1.89543 62 3V4" stroke="white" stroke-width="1.5"/>
<rect x="75.75" y="3.75" width="16.5" height="9.5" rx="2.25" fill="white" stroke="white" stroke-width="1.5"/>
<path d="M81 4V3C81 1.89543 81.8954 1 83 1H85C86.1046 1 87 1.89543 87 3V4" stroke="white" stroke-width="1.5"/>
</svg>
