<svg width="28" height="28" viewBox="0 0 28 28" fill="none" xmlns="http://www.w3.org/2000/svg">
<path d="M4.91667 12.6667C6.38943 12.6667 7.58333 13.8606 7.58333 15.3333V17.3333C7.58333 17.7015 7.88181 18 8.25 18H20.25C20.6182 18 20.9167 17.7015 20.9167 17.3333V15.3333C20.9167 13.8606 22.1106 12.6667 23.5833 12.6667M4.91667 12.6667C3.44391 12.6667 2.25 13.8606 2.25 15.3333V20.6667C2.25 22.1394 3.44391 23.3333 4.91667 23.3333H23.5833C25.0561 23.3333 26.25 22.1394 26.25 20.6667V15.3333C26.25 13.8606 25.0561 12.6667 23.5833 12.6667M4.91667 12.6667V11.3333C4.91667 6.17868 9.09534 2 14.25 2C19.4047 2 23.5833 6.17868 23.5833 11.3333V12.6667M12.9167 8.66667H15.5833M6.25 23.3333V26M22.25 23.3333V26" stroke="black" stroke-width="3" stroke-linecap="round"/>
</svg>
