<svg width="28" height="24" viewBox="0 0 28 24" fill="none" xmlns="http://www.w3.org/2000/svg">
<path d="M25.916 5.66639V16.3643C25.916 17.5064 25.916 18.0774 25.698 18.5136C25.5063 18.8973 25.2003 19.2093 24.824 19.4048C24.3962 19.627 23.8361 19.6271 22.716 19.6271C22.2742 19.6271 21.916 19.9852 21.916 20.427V21.6583C21.916 22.0789 21.4339 22.3172 21.0997 22.0617L19.0634 20.5045C18.6379 20.179 18.425 20.0163 18.1899 19.9007C17.9813 19.7981 17.7602 19.7233 17.5322 19.678C17.2752 19.6271 17.0074 19.6271 16.4716 19.6271H11.2493M5.11602 1.35254H18.716C19.8361 1.35254 20.3962 1.35254 20.824 1.5748C21.2003 1.77031 21.5063 2.08227 21.698 2.46597C21.916 2.90218 21.916 3.47322 21.916 4.61528V12.3643C21.916 13.5064 21.916 14.0774 21.698 14.5136C21.5063 14.8973 21.2003 15.2093 20.824 15.4048C20.3962 15.627 19.8361 15.6271 18.716 15.6271H11.3604C10.8247 15.6271 10.5568 15.6271 10.2998 15.678C10.0718 15.7233 9.8507 15.7981 9.6421 15.9007C9.40701 16.0163 9.19421 16.179 8.76864 16.5045L6.73229 18.0617C6.39815 18.3172 5.91602 18.0789 5.91602 17.6583V16.427C5.91602 15.9852 5.55784 15.6271 5.11602 15.6271C3.99591 15.6271 3.43586 15.627 3.00803 15.4048C2.63171 15.2093 2.32575 14.8973 2.134 14.5136C1.91602 14.0774 1.91602 13.5064 1.91602 12.3643V4.61528C1.91602 3.47322 1.91602 2.90218 2.134 2.46597C2.32575 2.08227 2.63171 1.77031 3.00803 1.5748C3.43586 1.35254 3.99591 1.35254 5.11602 1.35254Z" stroke="black" stroke-width="2.66667" stroke-linecap="round"/>
</svg>
