<svg width="21" height="28" viewBox="0 0 21 28" fill="none" xmlns="http://www.w3.org/2000/svg">
<path d="M1.85156 2H18.6516M1.85156 26H18.6516M3.05156 2V6.8C3.05156 10.7765 6.27511 14 10.2516 14M17.4516 26V21.2C17.4516 17.2236 14.228 14 10.2516 14M10.2516 14C6.27511 14 3.05156 17.2236 3.05156 21.2V26M10.2516 14C14.228 14 17.4516 10.7765 17.4516 6.8V2M13.8516 6.8C13.8516 8.78823 12.2398 10.4 10.2516 10.4C8.26334 10.4 6.65156 8.78823 6.65156 6.8M6.65156 22.4H13.8516" stroke="black" stroke-width="3" stroke-linecap="round"/>
</svg>
