<svg width="25" height="28" viewBox="0 0 25 28" fill="none" xmlns="http://www.w3.org/2000/svg">
<path d="M16.4231 20.6001C15.6239 23.7054 12.8049 26 9.45 26C5.47356 26 2.25 22.7765 2.25 18.8001C2.25 15.8943 3.97136 13.3905 6.45 12.2529M9.45 6.8L10.65 17.6L19.65 17L21.45 23.6H23.25M9.45 6.8C10.7755 6.8 11.85 5.72546 11.85 4.4C11.85 3.07452 10.7755 2 9.45 2C8.12454 2 7.05 3.07452 7.05 4.4C7.05 5.72546 8.12454 6.8 9.45 6.8ZM13.65 11.6H18.45" stroke="black" stroke-width="3" stroke-linecap="round" stroke-linejoin="round"/>
</svg>
