<svg width="32" height="28" viewBox="0 0 32 28" fill="none" xmlns="http://www.w3.org/2000/svg">
<path d="M12.8096 6.07824L7.10307 2.51812C5.46129 1.49386 3.30044 2.03703 2.33381 3.71697C1.41415 5.31526 1.91852 7.35713 3.47563 8.33947L7.68282 10.9937C8.01884 11.2057 8.24634 11.5538 8.30611 11.9476L9.43 19.3519C9.49247 19.7635 9.73802 20.1243 10.0974 20.3324L12.5132 21.732C13.3501 22.2168 14.4103 21.7002 14.5481 20.7405L15.0216 17.4427C15.1594 16.483 16.2196 15.9664 17.0565 16.4512L21.6267 19.0988C22.0999 19.3729 22.6903 19.3377 23.1278 19.0093L29.0773 14.5432C29.8625 13.9537 29.7912 12.7508 28.942 12.2588L26.7354 10.9805C26.2874 10.721 25.7316 10.7377 25.2999 11.0237L24.1601 11.7789C23.7283 12.0649 23.1726 12.0816 22.7245 11.8221L18.724 9.50454M12.8096 6.07824L18.462 3.65558C18.8573 3.48612 19.3091 3.51333 19.6815 3.72902L21.9076 5.01866C22.787 5.52807 22.8246 6.78792 21.9773 7.34928L18.724 9.50454M12.8096 6.07824L18.724 9.50454M25.2724 26L6.15003 26" stroke="black" stroke-width="3" stroke-linecap="round" stroke-linejoin="round"/>
</svg>
