<svg width="27" height="28" viewBox="0 0 27 28" fill="none" xmlns="http://www.w3.org/2000/svg">
<path d="M4.33923 21.2L2.35922 26H24.1393L20.1793 21.2M20.8393 19.4L24.7993 2C24.7993 2 17.8693 3.2 17.8693 5.60001C17.8693 7.10001 20.5093 8.00001 19.5193 8.90002C18.5293 9.80002 14.8993 10.7 14.8993 13.1C14.8993 14.6 15.982 15.7157 14.8993 16.7C13.9092 17.6 12.9192 17.1286 11.2692 16.7C9.42124 16.22 5.65923 15.8 4.33923 16.1C3.01922 16.4 1.6992 17 1.69922 18.8C1.69923 19.7896 2.35922 20.9 4.00922 21.2C5.65923 21.5 7.63923 20 10.2792 20C12.9192 20 16.2193 21.8 18.1993 21.8C20.1793 21.8 20.8393 19.4 20.8393 19.4Z" stroke="black" stroke-width="3" stroke-linejoin="round"/>
</svg>
