<svg width="28" height="28" viewBox="0 0 28 28" fill="none" xmlns="http://www.w3.org/2000/svg">
<path d="M2.25 18.5C2.25 17.7044 2.56607 16.9413 3.12868 16.3787C3.69129 15.8161 4.45435 15.5 5.25 15.5H6.75C7.54565 15.5 8.30871 15.8161 8.87132 16.3787C9.43393 16.9413 9.75 17.7044 9.75 18.5V23C9.75 23.7956 9.43393 24.5587 8.87132 25.1213C8.30871 25.6839 7.54565 26 6.75 26H5.25C4.45435 26 3.69129 25.6839 3.12868 25.1213C2.56607 24.5587 2.25 23.7956 2.25 23V18.5ZM2.25 18.5V14C2.25 10.8174 3.51428 7.76516 5.76472 5.51472C8.01516 3.26428 11.0674 2 14.25 2C17.4326 2 20.4848 3.26428 22.7353 5.51472C24.9857 7.76516 26.25 10.8174 26.25 14V18.5M26.25 18.5C26.25 17.7044 25.9339 16.9413 25.3713 16.3787C24.8087 15.8161 24.0456 15.5 23.25 15.5H21.75C20.9544 15.5 20.1913 15.8161 19.6287 16.3787C19.0661 16.9413 18.75 17.7044 18.75 18.5V23C18.75 23.7956 19.0661 24.5587 19.6287 25.1213C20.1913 25.6839 20.9544 26 21.75 26H23.25C24.0456 26 24.8087 25.6839 25.3713 25.1213C25.9339 24.5587 26.25 23.7956 26.25 23V18.5Z" stroke="black" stroke-width="3" stroke-linecap="round" stroke-linejoin="round"/>
</svg>
