<svg width="25" height="28" viewBox="0 0 25 28" fill="none" xmlns="http://www.w3.org/2000/svg">
<path d="M0.253906 25.722C0.253906 26.5504 0.925479 27.222 1.75391 27.222C2.58233 27.222 3.25391 26.5504 3.25391 25.722H0.253906ZM21.2471 25.722C21.2471 26.5504 21.9187 27.222 22.7471 27.222C23.5755 27.222 24.2471 26.5504 24.2471 25.722H21.2471ZM12.2494 17.8499L13.6016 17.2006H10.8973L12.2494 17.8499ZM9.5 23.5753L8.14783 22.926C7.84267 23.5615 8.02118 24.3237 8.57679 24.7576L9.5 23.5753ZM12.2494 25.7224L11.3262 26.9046C11.8688 27.3283 12.6301 27.3283 13.1726 26.9046L12.2494 25.7224ZM14.9989 23.5753L15.9221 24.7576C16.4777 24.3237 16.6562 23.5615 16.351 22.926L14.9989 23.5753ZM11.1825 5.90224C11.3473 5.09037 10.8228 4.29862 10.0109 4.13382C9.19902 3.96902 8.40727 4.49357 8.24247 5.30544L11.1825 5.90224ZM19.284 9.04269C19.646 8.29754 19.3354 7.40002 18.5903 7.03802C17.8451 6.67603 16.9476 6.98664 16.5856 7.73179L19.284 9.04269ZM4.33117 5.01419L3.44904 3.80099L4.33117 5.01419ZM7.72702 2.54504L8.60915 3.75824L7.72702 2.54504ZM4.02227 6.96919L5.23547 6.08706L4.02227 6.96919ZM4.04365 9.54924C4.53083 10.2193 5.46894 10.3675 6.13897 9.88032C6.809 9.39313 6.95723 8.45502 6.47004 7.78499L4.04365 9.54924ZM9.68203 2.85394L10.8952 1.97181L9.68203 2.85394ZM9.7034 5.43399C10.1906 6.10402 11.1287 6.25225 11.7987 5.76506C12.4688 5.27788 12.617 4.33977 12.1298 3.66974L9.7034 5.43399ZM17.3109 11.2892C17.3109 14.084 15.0453 16.3496 12.2505 16.3496V19.3496C16.7021 19.3496 20.3109 15.7408 20.3109 11.2892H17.3109ZM12.2505 16.3496C9.45573 16.3496 7.19013 14.084 7.19013 11.2892H4.19013C4.19013 15.7408 7.79888 19.3496 12.2505 19.3496V16.3496ZM7.19013 11.2892C7.19013 8.49444 9.45573 6.22884 12.2505 6.22884V3.22884C7.79888 3.22884 4.19013 6.83759 4.19013 11.2892H7.19013ZM12.2505 6.22884C15.0453 6.22884 17.3109 8.49444 17.3109 11.2892H20.3109C20.3109 6.83759 16.7021 3.22884 12.2505 3.22884V6.22884ZM3.25391 25.722C3.25391 24.1261 4.11291 22.5669 5.72829 21.3554C7.34412 20.1435 9.64511 19.3496 12.2505 19.3496V16.3496C9.05877 16.3496 6.11147 17.318 3.92829 18.9554C1.74464 20.5931 0.253906 22.9701 0.253906 25.722H3.25391ZM24.2471 25.722C24.2471 22.9701 22.7563 20.5931 20.5727 18.9554C18.3895 17.318 15.4422 16.3496 12.2505 16.3496V19.3496C14.8559 19.3496 17.1569 20.1435 18.7727 21.3554C20.3881 22.5669 21.2471 24.1261 21.2471 25.722H24.2471ZM10.8973 17.2006L8.14783 22.926L10.8522 24.2247L13.6016 18.4993L10.8973 17.2006ZM8.57679 24.7576L11.3262 26.9046L13.1726 24.5401L10.4232 22.3931L8.57679 24.7576ZM13.1726 26.9046L15.9221 24.7576L14.0757 22.3931L11.3262 24.5401L13.1726 26.9046ZM16.351 22.926L13.6016 17.2006L10.8973 18.4993L13.6467 24.2247L16.351 22.926ZM13.9986 9.35213C12.4115 9.35213 11.125 8.06559 11.125 6.47856H8.125C8.125 9.72244 10.7547 12.3521 13.9986 12.3521V9.35213ZM11.125 6.47856C11.125 6.27978 11.145 6.08721 11.1825 5.90224L8.24247 5.30544C8.16527 5.68573 8.125 6.07821 8.125 6.47856H11.125ZM16.5856 7.73179C16.1181 8.69403 15.1338 9.35213 13.9986 9.35213V12.3521C16.3257 12.3521 18.3338 10.9987 19.284 9.04269L16.5856 7.73179ZM5.2133 6.22739L8.60915 3.75824L6.8449 1.33184L3.44904 3.80099L5.2133 6.22739ZM8.60915 3.75824C8.56428 3.79086 8.50145 3.78094 8.46883 3.73606L10.8952 1.97181C9.95348 0.676619 8.14009 0.390094 6.8449 1.33184L8.60915 3.75824ZM3.44904 3.80099C2.15385 4.74273 1.86733 6.55613 2.80907 7.85132L5.23547 6.08706C5.2681 6.13194 5.25817 6.19476 5.2133 6.22739L3.44904 3.80099ZM6.47004 7.78499L5.23547 6.08706L2.80907 7.85132L4.04365 9.54924L6.47004 7.78499ZM8.46883 3.73606L9.7034 5.43399L12.1298 3.66974L10.8952 1.97181L8.46883 3.73606Z" fill="black"/>
</svg>
